<ttFont>
          <CharString index="0">
            rmoveto
            -6 -23 -24 -2 -28 -93 callgsubr
            77 214 callgsubr
            return
          </CharString>
          <CharString index="1">
            -106 callgsubr
            114 vlineto
            23 return
          </CharString>
          <CharString index="2">
            -84 callgsubr
            -2 callsubr
            vhcurveto
            -103 callsubr
            return
          </CharString>
          <CharString index="3">
            224 -107 callsubr
            return
          </CharString>
          <CharString index="4">
            204 callgsubr
            138 vlineto
            23 6 16 104 callgsubr
            -114 140 return
          </CharString>
          <CharString index="5">
            26 callgsubr
            107 vlineto
            23 5 16 31 vhcurveto
            29 hlineto
            4 -10 3 -25 -26 vvcurveto
            return
          </CharString>
          <CharString index="6">
            2 callsubr
            -15 -36 -36 -11 -49 hhcurveto
            -62 -30 17 41 hvcurveto
            48 vlineto
            -3 14 17 -2 20 hhcurveto
            return
          </CharString>
          <CharString index="7">
            -95 callsubr
            82 return
          </CharString>
          <CharString index="8">
            vlineto
            -39 -26 -13 -39 -31 -22 3 6 -29 vhcurveto
            -126 vlineto
            -7 29 23 -3 36 hhcurveto
            125 74 55 119 hvcurveto
            return
          </CharString>
          <CharString index="9">
            0 24 5 18 35 7 -17 -25 vhcurveto
            -114 vlineto
            -29 -4 -8 -24 -1 vhcurveto
            -6 -6 1 0 hvcurveto
            -131 vlineto
            0 11 -2 10 113 39 53 103 vhcurveto
            133 vlineto
            103 -46 54 -110 -34 -27 -5 0 vhcurveto
            return
          </CharString>
          <CharString index="10">
            hlineto
            -99 callgsubr
            return
          </CharString>
          <CharString index="11">
            -123 -46 -60 -103 hvcurveto
            -94 callsubr
            return
          </CharString>
          <CharString index="12">
            140 554 return
          </CharString>
          <CharString index="13">
            -113 -88 callsubr
            return
          </CharString>
          <CharString index="14">
            0 15 6 21 33 9 167 callsubr
            -30 -6 -9 -30 vhcurveto
            -130 vlineto
            -1 6 5 0 6 hhcurveto
            113 46 53 103 hvcurveto
            124 vlineto
            103 -49 60 -113 -34 -22 -8 0 vhcurveto
            61 return
          </CharString>
          <CharString index="15">
            -100 callsubr
            117 return
          </CharString>
          <CharString index="16">
            -31 -20 -12 -30 -16 -18 2 0 vhcurveto
            -135 vlineto
            0 36 -3 19 102 67 52 115 vhcurveto
            return
          </CharString>
          <CharString index="17">
            -103 46 -60 123 257 callgsubr
            vhcurveto
            return
          </CharString>
          <CharString index="18">
            -117 93 -67 -71 callsubr
            return
          </CharString>
          <CharString index="19">
            vlineto
            -83 callgsubr
            return
          </CharString>
          <CharString index="20">
            -554 -92 callsubr
            return
          </CharString>
          <CharString index="21">
            -2 15 17 -2 13 hhcurveto
            113 45 57 103 hvcurveto
            121 -66 callgsubr
            return
          </CharString>
          <CharString index="22">
            -107 callgsubr
            380 vlineto
            return
          </CharString>
          <CharString index="23">
            vlineto
            -86 callgsubr
            return
          </CharString>
          <CharString index="24">
            rmoveto
            86 vlineto
            25 17 13 27 27 17 -13 -25 vhcurveto
            -86 vlineto
            -233 -183 rmoveto
            -112 61 -62 147 85 32 10 9 33 vhcurveto
            132 vlineto
            -6 -20 -52 -14 -63 hhcurveto
            -62 -16 16 39 hvcurveto
            56 227 203 vlineto
            98 -52 257 callsubr
            -58 309 callsubr
          </CharString>
          <CharString index="25">
            -27 callgsubr
            250 -63 hlineto
            0 -26 5 -33 -123 -29 -59 -103 vhcurveto
            -78 vlineto
            -103 36 -54 123 34 18 6 0 vhcurveto
            -105 136 554 83 vlineto
            endchar
          </CharString>
          <CharString index="26">
            12 41 hvcurveto
            28 vlineto
            -67 callsubr
            return
          </CharString>
          <CharString index="27">
            vlineto
            23 6 16 33 return
          </CharString>
          <CharString index="28">
            -85 hlineto
            -60 callsubr
            return
          </CharString>
          <CharString index="29">
            125 callsubr
            3 -15 -17 2 -18 hhcurveto
            -17 -29 -3 -4 -18 hvcurveto
            760 86 rmoveto
            117 -1183 -117 287 -380 vlineto
            7 callsubr
            -55 vlineto
            11 callgsubr
            366 vlineto
            -93 callsubr
            vlineto
            endchar
          </CharString>
          <CharString index="30">
            -2 -7 -12 -2 -14 hhcurveto
            -36 -9 17 23 hvcurveto
            290 78 vlineto
            return
          </CharString>
          <CharString index="31">
            -18 callsubr
            -51 callsubr
            return
          </CharString>
          <CharString index="32">
            -72 callsubr
            vlineto
            endchar
          </CharString>
          <CharString index="33">
            -101 callsubr
            55 38 13 26 25 hvcurveto
            115 -261 -25 callsubr
          </CharString>
          <CharString index="34">
            rmoveto
            -288 vlineto
            -98 59 -63 131 131 59 63 98 vhcurveto
            288 vlineto
            98 -59 257 callsubr
            -59 -63 -98 vhcurveto
            232 -5 rmoveto
            -278 vlineto
            -23 -15 -15 -27 -27 -15 15 23 vhcurveto
            278 vlineto
            23 15 15 27 27 15 -15 -23 vhcurveto
            return
          </CharString>
          <CharString index="35">
            vlineto
            -70 callgsubr
            return
          </CharString>
          <CharString index="36">
            139 -29 callgsubr
            vhcurveto
            -95 -100 callsubr
            return
          </CharString>
          <CharString index="37">
            vlineto
            20 -4 29 -2 7 vhcurveto
            return
          </CharString>
          <CharString index="38">
            -67 140 278 -140 -88 vlineto
            -3 -10 -12 -3 -17 hhcurveto
            -35 -8 14 24 hvcurveto
            87 callgsubr
            return
          </CharString>
          <CharString index="39">
            2 callsubr
            -15 -36 -40 -8 -43 hhcurveto
            -75 -21 30 44 hvcurveto
            return
          </CharString>
          <CharString index="40">
            141 callgsubr
            37 vlineto
            34 return
          </CharString>
          <CharString index="41">
            194 callgsubr
            -2 callsubr
            vhcurveto
            -88 callgsubr
          </CharString>
          <CharString index="42">
            vlineto
            -89 callgsubr
            return
          </CharString>
          <CharString index="43">
            -61 callsubr
            -149 vlineto
            return
          </CharString>
          <CharString index="44">
            vlineto
            -96 callsubr
            return
          </CharString>
          <CharString index="45">
            290 rmoveto
            -45 -18 -29 -72 -71 -17 29 45 vhcurveto
            18 vlineto
            77 4 35 41 77 vvcurveto
            70 vlineto
            22 -2 18 -8 14 vhcurveto
            76 187 callsubr
            151 vlineto
            36 3 -25 -29 hvcurveto
            -41 294 callgsubr
            -10 vhcurveto
            25 -22 -37 13 -59 hhcurveto
            -187 return
          </CharString>
          <CharString index="46">
            215 callsubr
            155 callsubr
            return
          </CharString>
          <CharString index="47">
            -7 15 -9 12 -12 8 rrcurveto
            32 22 11 42 46 vvcurveto
            27 vlineto
            105 -56 66 -153 -36 -32 -4 -8 -23 vhcurveto
            -127 vlineto
            9 33 32 3 25 hhcurveto
            54 19 -15 -35 hvcurveto
            -21 vlineto
            -32 -15 -14 -38 vhcurveto
            -59 -129 59 hlineto
            38 15 -16 -33 hvcurveto
            -41 vlineto
            -35 -1 -19 -15 -54 hhcurveto
            -25 -45 4 9 -33 237 callsubr
            -8 23 45 -5 36 hhcurveto
            153 56 66 105 1 hvcurveto
            6 70 -213 -95 callsubr
            return
          </CharString>
          <CharString index="48">
            25 callsubr
            vlineto
            endchar
          </CharString>
          <CharString index="49">
            -59 -87 callgsubr
            return
          </CharString>
          <CharString index="50">
            rmoveto
            -26 vlineto
            -66 31 -35 40 -27 vhcurveto
            68 -45 rlineto
            45 -30 12 -8 -21 vvcurveto
            -9 vlineto
            -23 -14 -15 -77 -42 -45 8 6 -20 vhcurveto
            -135 vlineto
            -8 33 34 -5 63 hhcurveto
            148 70 57 109 hvcurveto
            25 vlineto
            64 -33 36 -46 30 vhcurveto
            -81 54 rlineto
            -33 22 -7 8 16 vvcurveto
            8 vlineto
            24 12 14 59 42 53 -10 -5 15 vhcurveto
            133 vlineto
            9 -29 -52 6 -41 hhcurveto
            -149 -56 -58 -103 hvcurveto
            return
          </CharString>
          <CharString index="51">
            -85 callsubr
            3 return
          </CharString>
          <CharString index="52">
            -103 callsubr
            114 vlineto
            23 return
          </CharString>
          <CharString index="53">
            0 7 -3 callsubr
            -48 vlineto
            return
          </CharString>
          <CharString index="54">
            0 10 -3 callsubr
            -119 vlineto
            -23 -7 -16 -33 -13 return
          </CharString>
          <CharString index="55">
            103 -56 46 -123 vhcurveto
            -25 hlineto
            -23 -6 12 19 hvcurveto
            10 vlineto
            19 7 12 22 vhcurveto
            return
          </CharString>
          <CharString index="56">
            -86 24 callgsubr
            return
          </CharString>
          <CharString index="57">
            15 vlineto
            113 -52 39 -98 -26 -20 -3 0 vhcurveto
            -123 vlineto
            0 9 3 16 23 14 -10 -23 vhcurveto
            -3 vlineto
            -31 -8 -16 -42 -42 -8 18 31 vhcurveto
            163 vlineto
            23 4 14 33 vhcurveto
            return
          </CharString>
          <CharString index="58">
            -111 60 -87 156 40 55 6 13 37 vhcurveto
            -82 callsubr
          </CharString>
          <CharString index="59">
            1 callsubr
            vlineto
            endchar
          </CharString>
          <CharString index="60">
            30 132 hlineto
            0 callsubr
            return
          </CharString>
          <CharString index="61">
            rmoveto
            -516 vlineto
            -31 -16 -19 -42 -42 -15 20 30 vhcurveto
            516 -150 -524 vlineto
            -106 66 195 callgsubr
            67 73 106 vhcurveto
            524 vlineto
            return
          </CharString>
          <CharString index="62">
            7 vlineto
            -52 callsubr
            return
          </CharString>
          <CharString index="63">
            -111 60 -87 156 40 55 6 13 37 vhcurveto
            -68 callsubr
            return
          </CharString>
          <CharString index="64">
            37 15 5 33 vhcurveto
            72 122 -77 -9 callsubr
            133 vlineto
            34 11 13 195 callsubr
            -53 hlineto
            -38 -26 -10 0 330 callgsubr
            0 19 9 34 39 20 -16 -48 vhcurveto
            return
          </CharString>
          <CharString index="65">
            -123 -46 -60 -103 hvcurveto
            return
          </CharString>
          <CharString index="66">
            20 callgsubr
            -40 -32 -7 -14 -24 vhcurveto
            13 -24 -32 8 -41 hhcurveto
            -17 -22 -3 -2 -8 hvcurveto
            54 301 vlineto
            424 hmoveto
            117 -1148 -24 callgsubr
            382 vlineto
            1 8 11 2 15 hhcurveto
            38 12 -16 -26 hvcurveto
            -141 -75 callsubr
          </CharString>
          <CharString index="67">
            rmoveto
            -23 -6 -16 -33 -33 -6 16 23 vhcurveto
            return
          </CharString>
          <CharString index="68">
            rmoveto
            107 hlineto
            60 115 rlineto
            -73 hlineto
            -40 -54 -41 54 rlineto
            -73 hlineto
            return
          </CharString>
          <CharString index="69">
            vlineto
            -13 callgsubr
            return
          </CharString>
          <CharString index="70">
            2 callgsubr
            -64 -99 -18 3 -14 118 callgsubr
            18 13 vvcurveto
            23 5 16 -8 callgsubr
            return
          </CharString>
          <CharString index="71">
            9 callgsubr
            endchar
          </CharString>
          <CharString index="72">
            vlineto
            -66 callsubr
          </CharString>
          <CharString index="73">
            rmoveto
            -44 -115 rlineto
            79 hlineto
            75 115 rlineto
            return
          </CharString>
          <CharString index="74">
            -64 callgsubr
            66 -362 -25 callsubr
          </CharString>
          <CharString index="75">
            -27 callsubr
            -51 vlineto
            -92 61 -68 return
          </CharString>
          <CharString index="76">
            160 callsubr
            hlineto
            27 7 -9 -26 hvcurveto
            -18 123 31 vlineto
            91 -37 46 -102 vhcurveto
            -73 hlineto
            12 callgsubr
            return
          </CharString>
          <CharString index="77">
            300 callsubr
            -54 59 -121 -14 -22 -1 -4 -13 vhcurveto
            54 283 vlineto
            0 10 -3 callsubr
            return
          </CharString>
          <CharString index="78">
            98 callsubr
            -20 3 -18 5 -17 vhcurveto
            -8 -35 -39 -5 -42 6 callsubr
            -14 3 -15 118 callgsubr
            17 17 171 callgsubr
            return
          </CharString>
          <CharString index="79">
            143 callgsubr
            27 20 4 2 10 vhcurveto
            return
          </CharString>
          <CharString index="80">
            0 -6 -16 -31 -18 callgsubr
            return
          </CharString>
          <CharString index="81">
            2 13 -4 callgsubr
            return
          </CharString>
          <CharString index="82">
            -100 callsubr
            hlineto
            endchar
          </CharString>
          <CharString index="83">
            -59 -17 -33 -42 224 callsubr
            hvcurveto
            return
          </CharString>
          <CharString index="84">
            vlineto
            -49 callsubr
          </CharString>
          <CharString index="85">
            -137 vlineto
            -68 callgsubr
            return
          </CharString>
          <CharString index="86">
            103 -53 60 -123 -123 -53 -60 -103 return
          </CharString>
          <CharString index="87">
            259 callgsubr
            -17 -19 -38 -29 -5 -45 -53 -51 9 8 -39 237 callsubr
            -10 45 42 -7 56 -45 callgsubr
            return
          </CharString>
          <CharString index="88">
            -117 87 hlineto
            -32 callsubr
            return
          </CharString>
          <CharString index="89">
            -123 -50 -59 -93 hvcurveto
            return
          </CharString>
          <CharString index="90">
            30 callgsubr
            2 -16 2 -14 vhcurveto
            return
          </CharString>
          <CharString index="91">
            rmoveto
            25 8 15 35 35 8 -15 -25 vhcurveto
            -79 vlineto
            -25 -8 -15 -35 -35 -8 15 25 vhcurveto
            return
          </CharString>
          <CharString index="92">
            -107 callsubr
            -527 -342 -54 callgsubr
            return
          </CharString>
          <CharString index="93">
            vlineto
            30 callsubr
          </CharString>
          <CharString index="94">
            vlineto
            30 -9 17 0 vhcurveto
            return
          </CharString>
          <CharString index="95">
            21 callgsubr
            endchar
          </CharString>
          <CharString index="96">
            rmoveto
            40 -54 rlineto
            73 hlineto
            -60 115 rlineto
            -107 hlineto
            -60 -115 rlineto
            73 hlineto
            return
          </CharString>
          <CharString index="97">
            rmoveto
            -23 -5 -16 -33 -33 -3 callgsubr
            287 76 vlineto
            return
          </CharString>
          <CharString index="98">
            hlineto
            -33 -6 16 23 hvcurveto
            return
          </CharString>
          <CharString index="99">
            -6 callgsubr
            5 13 -1 -1 16 vhcurveto
            -181 -38 callsubr
            return
          </CharString>
          <CharString index="100">
            -37 -31 -29 -43 -46 vvcurveto
            -50 34 -30 61 vhcurveto
            24 69 -11 hlineto
            -19 -10 11 25 37 18 35 22 23 hvcurveto
            return
          </CharString>
          <CharString index="101">
            9 callsubr
            14 20 42 return
          </CharString>
          <CharString index="102">
            3 -15 -24 4 -27 hhcurveto
            return
          </CharString>
          <CharString index="103">
            hlineto
            -113 74 -71 139 37 36 4 6 29 vhcurveto
            -36 -41 callgsubr
          </CharString>
          <CharString index="104">
            -13 -34 vvcurveto
            return
          </CharString>
          <CharString index="105">
            29 22 2 2 16 return
          </CharString>
          <CharString index="106">
            hlineto
            11 callgsubr
            return
          </CharString>
          <CharString index="107">
            -33 -16 5 33 hvcurveto
            return
          </CharString>
          <CharString index="108">
            -103 35 -53 124 vhcurveto
            22 callgsubr
            return
          </CharString>
          <CharString index="109">
            130 vlineto
            return
          </CharString>
          <CharString index="110">
            -149 -35 callsubr
          </CharString>
          <CharString index="111">
            221 -28 callgsubr
            return
          </CharString>
          <CharString index="112">
            -103 55 -60 123 123 55 60 103 vhcurveto
            return
          </CharString>
          <CharString index="113">
            -46 callgsubr
            -63 -103 return
          </CharString>
          <CharString index="114">
            101 callsubr
            33 2 13 179 callsubr
            return
          </CharString>
          <CharString index="115">
            rmoveto
            -117 126 vlineto
            -54 callsubr
            -29 -7 -16 -19 -9 vhcurveto
            20 -25 -38 9 -54 hhcurveto
            -42 20 callsubr
            return
          </CharString>
          <CharString index="116">
            296 callgsubr
            35 -53 124 vhcurveto
            -47 callsubr
            150 vlineto
            29 return
          </CharString>
          <CharString index="117">
            hhcurveto
            -133 -35 -54 -103 hvcurveto
            -79 vlineto
            -103 35 -54 133 return
          </CharString>
          <CharString index="118">
            -5 callsubr
            -119 258 callsubr
            return
          </CharString>
          <CharString index="119">
            62 45 9 13 37 return
          </CharString>
          <CharString index="120">
            0 -17 -7 -24 -36 -9 17 23 vhcurveto
            return
          </CharString>
          <CharString index="121">
            -117 526 44 callgsubr
            -35 -28 -5 -11 -22 vhcurveto
            4 -21 -45 3 -35 hhcurveto
            -128 -76 -58 -123 hvcurveto
            -161 vlineto
            -103 35 -53 124 vhcurveto
            -47 callsubr
            142 vlineto
            38 22 19 42 10 11 0 -1 10 vhcurveto
            -1 -5 0 -7 -6 171 callsubr
            370 vlineto
            0 24 5 18 35 7 -17 -25 vhcurveto
            return
          </CharString>
          <CharString index="122">
            297 25 callgsubr
            132 38 rmoveto
            -114 113 rlineto
            49 callgsubr
            return
          </CharString>
          <CharString index="123">
            rmoveto
            59 hlineto
            26 15 -7 -31 hvcurveto
            -113 vlineto
            -34 -11 -11 -30 vhcurveto
            -59 hlineto
            277 -369 rmoveto
            -109 262 rlineto
            58 21 24 50 79 vvcurveto
            128 vlineto
            103 -68 50 -106 vhcurveto
            -226 -693 150 250 19 hlineto
            93 -250 rlineto
            endchar
          </CharString>
          <CharString index="124">
            rmoveto
            -52 callsubr
            174 170 216 117 -634 -117 278 -50 -34 193 callgsubr
            227 callgsubr
            -15 -20 hvcurveto
            -4 vlineto
            -38 -29 -2 -45 -48 -53 8 9 -42 vhcurveto
            -127 vlineto
            -9 42 42 -8 59 hhcurveto
            145 69 53 114 hvcurveto
            -12 162 rmoveto
            239 callsubr
          </CharString>
          <CharString index="125">
            rmoveto
            -44 29 -36 52 53 28 36 44 44 -28 35 -53 -52 -29 -35 -44 vhcurveto
            109 hmoveto
            -18 -11 -11 -17 -17 -11 11 18 16 11 12 17 17 11 -12 -16 vhcurveto
            return
          </CharString>
          <CharString index="126">
            -83 callgsubr
            66 127 callgsubr
            hlineto
            endchar
          </CharString>
          <CharString index="127">
            79 8 callgsubr
            -74 -39 vlineto
            return
          </CharString>
          <CharString index="128">
            rmoveto
            117 -673 -117 299 -370 vlineto
            0 -17 -8 -25 -35 -7 17 25 vhcurveto
            125 85 callsubr
            -111 vlineto
            217 callgsubr
            -141 rlineto
            151 hlineto
            78 136 rlineto
            1 -94 137 380 59 callsubr
            54 vlineto
            endchar
          </CharString>
          <CharString index="129">
            6 10 18 7 20 hhcurveto
            19 7 -8 -16 hvcurveto
            -430 153 467 293 callsubr
            -49 -42 -18 -11 -20 vhcurveto
            return
          </CharString>
          <CharString index="130">
            hhcurveto
            -29 callgsubr
            hvcurveto
            91 callgsubr
          </CharString>
          <CharString index="131">
            rmoveto
            132 -111 rlineto
            -9 -12 -18 -5 -26 hhcurveto
            -58 -18 23 46 hvcurveto
            return
          </CharString>
          <CharString index="132">
            -103 41 -56 123 75 callgsubr
            vhcurveto
            155 callgsubr
            return
          </CharString>
          <CharString index="133">
            hlineto
            30 callsubr
          </CharString>
          <CharString index="134">
            rmoveto
            -128 107 95 callsubr
            53 18 -23 -46 hvcurveto
            -142 -29 5 callgsubr
            return
          </CharString>
          <CharString index="135">
            139 vlineto
            -6 -20 -37 -10 -42 hhcurveto
            -47 -24 10 39 hvcurveto
            226 vlineto
            39 24 10 47 42 37 -10 -6 20 vhcurveto
            return
          </CharString>
          <CharString index="136">
            103 -49 56 -118 -118 -53 -56 -103 vhcurveto
            return
          </CharString>
          <CharString index="137">
            0 11 -13 -101 callgsubr
            81 -371 169 callsubr
          </CharString>
          <CharString index="138">
            rmoveto
            10 -57 -39 -7 -46 16 -142 48 rcurveline
            -109 37 -106 -27 -132 vvcurveto
            -31 5 -29 0 vhcurveto
            135 hlineto
            -10 57 39 7 46 -16 142 -48 rcurveline
            109 -37 106 27 132 vvcurveto
            34 -6 26 0 vhcurveto
            return
          </CharString>
          <CharString index="139">
            vlineto
            -90 callsubr
            94 166 callgsubr
            36 13 -20 -32 hvcurveto
            -43 vlineto
            -89 callsubr
            vlineto
            endchar
          </CharString>
          <CharString index="140">
            vlineto
            -71 23 -38 51 -16 vhcurveto
            -91 -165 rlineto
            150 hlineto
            89 160 rlineto
            0 vlineto
            -97 140 278 -140 -78 vlineto
            -3 -10 -12 -3 -17 hhcurveto
            -35 -8 14 24 hvcurveto
            99 170 callgsubr
          </CharString>
          <CharString index="141">
            1 vlineto
            125 -66 callgsubr
            return
          </CharString>
          <CharString index="142">
            -18 callsubr
            -75 -65 callsubr
            109 return
          </CharString>
          <CharString index="143">
            228 rmoveto
            -77 callsubr
            return
          </CharString>
          <CharString index="144">
            -5 41 685 rmoveto
            -141 vlineto
            13 34 34 5 52 hhcurveto
            55 17 -20 -28 hvcurveto
            -47 vlineto
            -33 -14 -16 -37 vhcurveto
            -76 -140 78 hlineto
            37 14 -8 -33 hvcurveto
            -58 vlineto
            -29 -17 -19 -54 -61 -43 11 15 -35 vhcurveto
            -142 vlineto
            -8 19 49 -13 74 hhcurveto
            152 67 65 103 hvcurveto
            96 vlineto
            66 -29 27 -41 4 vhcurveto
            41 10 27 39 58 vvcurveto
            69 vlineto
            104 -69 64 -152 -58 -37 -5 -9 -27 vhcurveto
            endchar
          </CharString>
          <CharString index="145">
            rmoveto
            -32 -185 rlineto
            -29 -165 -5 -121 0 vvcurveto
            0 -3 119 -32 170 vhcurveto
            -34 182 rlineto
            -148 hlineto
            118 -590 rlineto
            52 hlineto
            -28 -149 rlineto
            146 hlineto
            140 739 rlineto
            return
          </CharString>
          <CharString index="146">
            30 16 19 57 45 46 -7 -10 33 vhcurveto
            138 vlineto
            8 -30 -47 6 -49 hhcurveto
            -153 -70 -66 -103 hvcurveto
            return
          </CharString>
          <CharString index="147">
            -33 -42 -76 callgsubr
            return
          </CharString>
          <CharString index="148">
            38 30 524 rmoveto
            -137 vlineto
            -99 50 -61 109 45 30 6 6 15 vhcurveto
            -59 vlineto
            -29 -21 -19 -54 -61 -52 11 15 -35 vhcurveto
            -142 vlineto
            -8 19 58 -13 74 hhcurveto
            152 70 65 103 hvcurveto
            361 vlineto
            106 -58 73 -141 -141 -59 -73 -106 vhcurveto
            249 -3 rmoveto
            -156 vlineto
            0 -23 -9 -29 -32 -15 16 33 vhcurveto
            116 vlineto
            31 9 19 41 41 8 -20 -30 vhcurveto
            endchar
          </CharString>
          <CharString index="149">
            4 -9 2 -16 -23 vvcurveto
            -83 vlineto
            -23 -3 -16 -36 -24 -15 5 0 vhcurveto
            77 -135 -283 135 81 vlineto
            -6 23 15 -2 29 hhcurveto
            90 61 49 110 hvcurveto
            89 vlineto
            20 -2 19 -5 11 vhcurveto
            return
          </CharString>
          <CharString index="150">
            rmoveto
            78 -255 hlineto
            -2 -7 -12 -2 -14 hhcurveto
            -36 -9 17 23 hvcurveto
            455 219 rmoveto
            117 -677 -117 82 -225 vlineto
            -70 20 -48 50 -24 vhcurveto
            -104 -187 rlineto
            153 hlineto
            98 177 rlineto
            1 -177 140 374 59 callsubr
            60 vlineto
            endchar
          </CharString>
          <CharString index="151">
            rmoveto
            -49 -115 rlineto
            69 hlineto
            80 115 rlineto
            -220 hmoveto
            -49 -115 rlineto
            69 hlineto
            80 115 rlineto
            return
          </CharString>
          <CharString index="152">
            70 321 425 rmoveto
            -140 129 rlineto
            140 hlineto
            -429 vmoveto
            -40 -10 -22 -64 -65 -9 22 40 vhcurveto
            54 vlineto
            40 9 22 65 65 9 -22 -40 vhcurveto
            -148 284 rmoveto
            124 -115 rlineto
            -5 -11 -16 -3 -23 hhcurveto
            -65 -9 22 40 hvcurveto
            362 269 rmoveto
            -575 -117 78 -151 hlineto
            -50 17 -38 33 -25 vhcurveto
            -33 -25 -17 -36 -45 vvcurveto
            -64 vlineto
            return
          </CharString>
          <CharString index="153">
            rmoveto
            -33 -10 15 23 hvcurveto
            79 vlineto
            121 -112 rlineto
            -3 -5 -7 -2 -10 hhcurveto
            -319 327 rmoveto
            -117 80 -172 vlineto
            -41 12 -28 22 -19 vhcurveto
            -21 -19 -13 -29 -42 vvcurveto
            -50 vlineto
            return
          </CharString>
          <CharString index="154">
            -47 13 -30 26 -17 vhcurveto
            79 callgsubr
            return
          </CharString>
          <CharString index="155">
            145 callsubr
            107 callsubr
          </CharString>
          <CharString index="156">
            vhcurveto
            -274 -117 274 -50 -39 hlineto
            -113 -56 -39 -103 hvcurveto
            -10 317 callgsubr
            26 hlineto
            33 6 -17 -20 hvcurveto
            -17 vlineto
            -25 -9 -14 -35 -21 -23 7 0 vhcurveto
            44 -138 -251 138 83 vlineto
            0 30 -7 34 123 41 55 103 vhcurveto
            27 318 callgsubr
            -26 hlineto
            -22 -7 9 18 hvcurveto
            2 vlineto
            19 6 8 23 vhcurveto
            return
          </CharString>
          <CharString index="157">
            35 callgsubr
            -211 -79 rmoveto
            -103 35 -54 133 133 35 54 103 vhcurveto
            79 vlineto
            103 -35 54 -133 -133 -35 -54 -103 vhcurveto
            -444 336 rmoveto
            249 callsubr
            vlineto
            -80 callgsubr
            return
          </CharString>
          <CharString index="158">
            -11 -38 -35 -7 -51 hhcurveto
            -59 -16 22 43 hvcurveto
            365 86 -141 vlineto
            -30 -5 -6 -25 vhcurveto
            -9 -129 hlineto
            -1 7 8 -1 5 hhcurveto
            123 36 55 103 hvcurveto
            150 74 117 return
          </CharString>
          <CharString index="159">
            vvcurveto
            -23 vlineto
            -113 67 -50 175 181 57 55 123 vhcurveto
            172 vlineto
            return
          </CharString>
          <CharString index="160">
            -69 callsubr
            endchar
          </CharString>
          <CharString index="161">
            0 -21 5 -27 161 callgsubr
            vhcurveto
            -35 callgsubr
            return
          </CharString>
          <CharString index="162">
            -426 -470 114 callgsubr
            136 251 callsubr
            231 -115 rmoveto
            1 5 4 0 3 hhcurveto
            20 9 -11 -30 11 hvcurveto
            26 -72 rlineto
            119 hlineto
            261 callsubr
            return
          </CharString>
          <CharString index="163">
            166 rmoveto
            -7 -30 -23 -3 -37 hhcurveto
            -71 -17 19 31 hvcurveto
            return
          </CharString>
          <CharString index="164">
            rmoveto
            148 callsubr
            -74 -39 vlineto
            return
          </CharString>
          <CharString index="165">
            rmoveto
            117 -931 -117 388 vlineto
            149 callsubr
            -1 vlineto
            -4 -17 -19 -2 -21 hhcurveto
            -37 -31 -1 callgsubr
            78 -53 115 42 32 5 7 24 vhcurveto
            return
          </CharString>
          <CharString index="166">
            hlineto
            7 callgsubr
            return
          </CharString>
          <CharString index="167">
            -218 -78 60 vlineto
            -21 callsubr
            -14 2 -8 110 callsubr
            -2 9 8 -15 callgsubr
            -55 -39 vlineto
            return
          </CharString>
          <CharString index="168">
            rmoveto
            314 callgsubr
            70 vlineto
            0 31 238 callgsubr
            45 57 103 vhcurveto
            105 -66 callgsubr
            85 117 -517 323 callsubr
            -103 173 callgsubr
            81 -140 -277 vlineto
            -103 66 -76 143 62 56 6 callgsubr
            endchar
          </CharString>
          <CharString index="169">
            rmoveto
            -79 callgsubr
            171 hmoveto
            -79 callgsubr
            endchar
          </CharString>
          <CharString index="170">
            hlineto
            33 -30 -46 16 -60 85 callgsubr
            return
          </CharString>
          <CharString index="171">
            rmoveto
            -32 -103 -33 -107 -13 -57 -11 -56 rlinecurve
            -10 56 -12 55 -34 107 -33 105 rcurveline
            -154 hlineto
            165 -478 rlineto
            -215 152 215 vlineto
            165 478 rlineto
            return
          </CharString>
          <CharString index="172">
            rmoveto
            -44 -23 -14 -29 -46 hvcurveto
            40 177 callsubr
            434 vlineto
            10 21 36 10 41 hhcurveto
            23 139 hlineto
            return
          </CharString>
          <CharString index="173">
            rmoveto
            -28 -15 -19 -28 -28 -15 19 28 vhcurveto
            -77 hlineto
            -69 51 -46 69 68 52 45 70 vhcurveto
            return
          </CharString>
          <CharString index="174">
            hlineto
            31 -6 16 0 vhcurveto
            45 117 -461 88 callgsubr
            return
          </CharString>
          <CharString index="175">
            291 callgsubr
            -169 234 callgsubr
            150 231 callgsubr
            return
          </CharString>
          <CharString index="176">
            5 callsubr
            288 return
          </CharString>
          <CharString index="177">
            -55 hlineto
            -5 callsubr
            return
          </CharString>
          <CharString index="178">
            -6 callsubr
            23 return
          </CharString>
          <CharString index="179">
            vlineto
            24 201 callgsubr
            return
          </CharString>
          <CharString index="180">
            rlineto
            11 hlineto
            21 -1 11 -8 -15 vvcurveto
            -14 -12 -9 -20 -12 -15 2 3 -7 vhcurveto
            -66 vlineto
            -4 18 17 -2 17 hhcurveto
            61 40 32 53 49 -38 16 -20 2 hvcurveto
            return
          </CharString>
          <CharString index="181">
            -55 vlineto
            11 callsubr
            return
          </CharString>
          <CharString index="182">
            15 280 callsubr
            -398 vlineto
            5 86 27 4 40 hhcurveto
            46 14 -11 -32 hvcurveto
            -82 vlineto
            -30 -17 -18 -54 -47 -46 9 17 -54 vhcurveto
            -140 vlineto
            -14 44 39 -9 70 hhcurveto
            152 64 65 103 hvcurveto
            122 vlineto
            104 -63 49 -98 -25 -12 0 -1 -17 vhcurveto
            117 192 140 vlineto
            endchar
          </CharString>
          <CharString index="183">
            vlineto
            -72 16 -36 71 -53 vhcurveto
            -134 -139 152 -22 82 86 return
          </CharString>
          <CharString index="184">
            rmoveto
            218 callgsubr
            183 117 -507 -117 184 -52 vlineto
            103 callsubr
            -135 -2 58 callgsubr
            endchar
          </CharString>
          <CharString index="185">
            vlineto
            -6 -37 -61 -7 -68 hhcurveto
            -59 -31 12 47 hvcurveto
            47 271 callgsubr
            78 hlineto
            109 51 49 79 hvcurveto
            185 78 296 callsubr
          </CharString>
          <CharString index="186">
            -59 -32 vlineto
            -123 -58 -39 -120 hvcurveto
            return
          </CharString>
          <CharString index="187">
            78 callgsubr
            -24 return
          </CharString>
          <CharString index="188">
            -68 callgsubr
            123 vlineto
            175 callgsubr
            return
          </CharString>
          <CharString index="189">
            rmoveto
            284 callsubr
            117 -673 -117 452 135 callsubr
            endchar
          </CharString>
          <CharString index="190">
            -152 354 398 rmoveto
            -309 -398 281 callgsubr
            45 59 48 61 29 47 25 54 rlinecurve
            -120 333 325 callgsubr
            -167 hlineto
            -91 callsubr
            return
          </CharString>
          <CharString index="191">
            -117 348 -68 vlineto
            0 -34 10 -56 -142 -51 -69 -112 vhcurveto
            102 callgsubr
            return
          </CharString>
          <CharString index="192">
            vlineto
            25 7 17 35 5 5 -1 0 -7 callgsubr
            0 -13 3 -16 -110 -46 -54 -103 vhcurveto
            return
          </CharString>
          <CharString index="193">
            29 callsubr
            -29 vlineto
            return
          </CharString>
          <CharString index="194">
            222 117 rmoveto
            return
          </CharString>
          <CharString index="195">
            24 35 439 -73 callsubr
            return
          </CharString>
          <CharString index="196">
            265 747 rmoveto
            -157 -44 vlineto
            -130 -56 -72 -107 hvcurveto
            -279 vlineto
            -84 43 -52 86 60 35 32 14 11 vhcurveto
            -42 147 747 vlineto
            -151 -602 rmoveto
            -6 -10 -22 -6 -20 hhcurveto
            -20 -8 10 16 hvcurveto
            247 vlineto
            35 17 15 30 vhcurveto
            33 hlineto
            return
          </CharString>
          <CharString index="197">
            rmoveto
            98 callgsubr
            return
          </CharString>
          <CharString index="198">
            -49 callgsubr
            -63 -103 vhcurveto
            -29 133 34 vlineto
            189 callgsubr
            return
          </CharString>
          <CharString index="199">
            381 rmoveto
            -78 1 hlineto
            125 -66 callgsubr
            84 hlineto
            -215 211 callgsubr
            return
          </CharString>
          <CharString index="200">
            218 callsubr
            vlineto
            -28 callsubr
            return
          </CharString>
          <CharString index="201">
            -117 77 -282 hlineto
            -103 43 -55 127 return
          </CharString>
          <CharString index="202">
            rlineto
            13 11 18 6 28 hhcurveto
            return
          </CharString>
          <CharString index="203">
            25 callsubr
            117 vlineto
            endchar
          </CharString>
          <CharString index="204">
            23 5 13 -8 callgsubr
            -133 -131 hlineto
            return
          </CharString>
          <CharString index="205">
            rmoveto
            -117 103 vlineto
            -42 callgsubr
            return
          </CharString>
          <CharString index="206">
            hlineto
            30 40 61 93 58 vvcurveto
            36 -17 21 -44 vhcurveto
            return
          </CharString>
          <CharString index="207">
            181 callsubr
            -44 callsubr
            return
          </CharString>
          <CharString index="208">
            -107 callgsubr
            350 vlineto
            3 10 return
          </CharString>
          <CharString index="209">
            -40 -34 -10 0 330 callgsubr
            0 19 9 28 44 21 300 callgsubr
            10 37 vhcurveto
            2 130 callsubr
            121 vlineto
            34 2 25 49 vhcurveto
            return
          </CharString>
          <CharString index="210">
            -75 -17 -34 -50 -81 vvcurveto
            -196 vlineto
            -103 56 -60 123 123 56 60 103 vhcurveto
            return
          </CharString>
          <CharString index="211">
            -113 -56 -39 -103 hvcurveto
            return
          </CharString>
          <CharString index="212">
            rmoveto
            -29 -15 -11 -20 -17 vhcurveto
            -21 17 -14 11 29 vvcurveto
            return
          </CharString>
          <CharString index="213">
            -23 -6 -16 -33 -12 -10 2 2 return
          </CharString>
          <CharString index="214">
            -122 -41 callgsubr
          </CharString>
          <CharString index="215">
            hlineto
            -46 -20 13 33 hvcurveto
            20 122 callsubr
            return
          </CharString>
          <CharString index="216">
            116 callsubr
            vlineto
            return
          </CharString>
          <CharString index="217">
            195 callsubr
            hlineto
            0 return
          </CharString>
          <CharString index="218">
            140 366 hlineto
            -93 callsubr
            return
          </CharString>
          <CharString index="219">
            rmoveto
            -126 156 vlineto
            -159 -372 rlineto
            -92 324 126 -158 vlineto
            155 374 rlineto
            90 vlineto
            return
          </CharString>
          <CharString index="220">
            -17 callgsubr
            endchar
          </CharString>
          <CharString index="221">
            hlineto
            -33 -6 10 19 hvcurveto
            5 vlineto
            15 1 8 7 30 hhcurveto
            169 170 return
          </CharString>
          <CharString index="222">
            79 hlineto
            -21 callsubr
            return
          </CharString>
          <CharString index="223">
            8 12 1 1 11 vhcurveto
            130 return
          </CharString>
          <CharString index="224">
            rmoveto
            214 callsubr
            -129 171 rlineto
            return
          </CharString>
          <CharString index="225">
            204 callsubr
            78 163 callsubr
          </CharString>
          <CharString index="226">
            vlineto
            47 callgsubr
          </CharString>
          <CharString index="227">
            -65 callsubr
            109 84 -316 -92 callsubr
            return
          </CharString>
          <CharString index="228">
            446 37 callgsubr
            return
          </CharString>
          <CharString index="229">
            -31 callsubr
            187 320 callgsubr
            return
          </CharString>
          <CharString index="230">
            rmoveto
            -1 8 327 callgsubr
            -136 vlineto
            -23 -6 -15 -33 vhcurveto
            -20 -17 5 -2 hhcurveto
            85 -7 -56 51 -112 74 callgsubr
            84 38 117 return
          </CharString>
          <CharString index="231">
            vvcurveto
            -16 -241 -63 callsubr
            107 hlineto
            -22 -18 -11 -30 -46 vvcurveto
            -51 vlineto
            return
          </CharString>
          <CharString index="232">
            rmoveto
            -77 callsubr
            -332 294 callsubr
            return
          </CharString>
          <CharString index="233">
            -39 hlineto
            -18 callsubr
            return
          </CharString>
          <CharString index="234">
            -123 60 -59 return
          </CharString>
          <CharString index="235">
            323 rmoveto
            147 callsubr
            117 return
          </CharString>
          <CharString index="236">
            228 callgsubr
            -85 -61 callgsubr
          </CharString>
          <CharString index="237">
            vlineto
            37 15 5 33 vhcurveto
            72 122 -77 -9 callsubr
            return
          </CharString>
          <CharString index="238">
            vlineto
            17 9 6 20 vhcurveto
            return
          </CharString>
          <CharString index="239">
            -40 5 693 rmoveto
            -139 197 vlineto
            -68 -218 rlineto
            -18 -48 -15 -85 -86 vvcurveto
            -117 152 104 vlineto
            89 14 68 17 50 vhcurveto
            87 261 rlineto
            121 vlineto
            endchar
          </CharString>
          <CharString index="240">
            hhcurveto
            -38 208 callgsubr
            38 vhcurveto
            5 9 -1 10 hhcurveto
            117 vlineto
            return
          </CharString>
          <CharString index="241">
            -54 callsubr
            -25 -5 -15 -13 -10 vhcurveto
            55 -27 -54 27 -77 hhcurveto
            -174 hlineto
            return
          </CharString>
          <CharString index="242">
            -63 -322 148 callgsubr
            return
          </CharString>
          <CharString index="243">
            0 -11 -17 -30 -18 callgsubr
            -51 vlineto
            -97 63 -63 131 43 31 5 5 20 vhcurveto
            289 callgsubr
            return
          </CharString>
          <CharString index="244">
            120 74 -328 219 callgsubr
            vlineto
            endchar
          </CharString>
          <CharString index="245">
            hvcurveto
            28 -30 -44 14 -55 255 callgsubr
            -76 vlineto
            -90 callsubr
            57 166 callgsubr
            return
          </CharString>
          <CharString index="246">
            212 -54 callgsubr
            return
          </CharString>
          <CharString index="247">
            -121 -183 121 -183 rlineto
            150 hlineto
            -122 183 122 183 rlineto
            return
          </CharString>
          <CharString index="248">
            -46 -20 13 33 hvcurveto
            20 -75 callgsubr
            return
          </CharString>
          <CharString index="249">
            -138 104 -79 160 return
          </CharString>
          <CharString index="250">
            vlineto
            7 -50 -63 6 -62 hhcurveto
            -151 -52 -80 -103 hvcurveto
            -6 callgsubr
            return
          </CharString>
          <CharString index="251">
            -64 callgsubr
            66 -362 222 callsubr
          </CharString>
          <CharString index="252">
            143 callgsubr
            39 26 8 0 vhcurveto
            return
          </CharString>
          <CharString index="253">
            58 210 callgsubr
            -58 return
          </CharString>
          <CharString index="254">
            -169 vlineto
            1 callsubr
            return
          </CharString>
          <CharString index="255">
            -237 -78 79 vlineto
            -21 callsubr
            -15 4 -22 110 callsubr
            -4 16 16 -15 callgsubr
            return
          </CharString>
          <CharString index="256">
            293 callgsubr
            -139 vlineto
            176 callsubr
            return
          </CharString>
          <CharString index="257">
            rlineto
            143 hlineto
            return
          </CharString>
          <CharString index="258">
            vhcurveto
            -5 -26 -27 -4 -31 hhcurveto
            -53 -27 -81 callsubr
            10 13 0 vhcurveto
            return
          </CharString>
          <CharString index="259">
            -125 -61 -63 -113 hvcurveto
            -22 callsubr
            return
          </CharString>
          <CharString index="260">
            rmoveto
            -42 -248 rlineto
            64 207 callsubr
          </CharString>
          <CharString index="261">
            hhcurveto
            -39 -13 14 26 hvcurveto
            return
          </CharString>
          <CharString index="262">
            -61 -60 -103 hvcurveto
            return
          </CharString>
          <CharString index="263">
            248 callsubr
            40 9 8 173 callsubr
            -15 2 -17 return
          </CharString>
          <CharString index="264">
            196 634 -196 hlineto
            236 -185 rmoveto
            196 185 -196 hlineto
            return
          </CharString>
          <CharString index="265">
            -10 -33 -48 -5 -46 hhcurveto
            -56 -17 19 29 hvcurveto
            return
          </CharString>
          <CharString index="266">
            hhcurveto
            244 callsubr
            hvcurveto
            return
          </CharString>
          <CharString index="267">
            -75 callgsubr
            44 return
          </CharString>
          <CharString index="268">
            125 vlineto
            -6 -37 return
          </CharString>
          <CharString index="269">
            0 -17 -8 -25 -35 -7 17 25 vhcurveto
            135 vlineto
            25 7 17 35 5 5 -1 0 -7 callgsubr
            0 -13 3 -16 -32 -27 -5 -9 -22 vhcurveto
            return
          </CharString>
          <CharString index="270">
            -554 -41 callgsubr
          </CharString>
          <CharString index="271">
            9 -33 -29 6 -63 hhcurveto
            -129 -67 -58 -116 hvcurveto
            return
          </CharString>
          <CharString index="272">
            -129 99 hlineto
            0 11 -3 callsubr
            return
          </CharString>
          <CharString index="273">
            74 callgsubr
            54 return
          </CharString>
          <CharString index="274">
            -16 -23 vhcurveto
            -105 vlineto
            return
          </CharString>
          <CharString index="275">
            -1 24 693 186 callgsubr
            return
          </CharString>
          <CharString index="276">
            135 callgsubr
            hlineto
            endchar
          </CharString>
          <CharString index="277">
            22 callgsubr
            vlineto
            endchar
          </CharString>
          <CharString index="278">
            vvcurveto
            -90 callgsubr
            return
          </CharString>
          <CharString index="279">
            -34 callsubr
            endchar
          </CharString>
          <CharString index="280">
            -1 0 vhcurveto
            117 vlineto
            0 return
          </CharString>
          <CharString index="281">
            179 callsubr
            -4 return
          </CharString>
          <CharString index="282">
            -344 hlineto
            0 -17 -8 -25 -35 -7 17 25 vhcurveto
            99 vlineto
            25 7 17 35 5 5 -1 0 -7 callgsubr
            0 -13 3 -16 return
          </CharString>
          <CharString index="283">
            -47 13 -30 26 -17 vhcurveto
            308 callgsubr
            return
          </CharString>
          <CharString index="284">
            -142 -590 151 return
          </CharString>
          <CharString index="285">
            491 rmoveto
            -227 hlineto
            return
          </CharString>
          <CharString index="286">
            hhcurveto
            38 20 -12 -30 hvcurveto
            return
          </CharString>
          <CharString index="287">
            219 callsubr
            201 callsubr
            return
          </CharString>
          <CharString index="288">
            249 callsubr
            hlineto
            -80 callgsubr
            return
          </CharString>
          <CharString index="289">
            52 callsubr
            67 -14 44 -40 21 vhcurveto
            75 vlineto
            endchar
          </CharString>
          <CharString index="290">
            -94 142 rlineto
            71 -47 -46 17 -64 hhcurveto
            -17 -13 -1 -2 -15 hvcurveto
            return
          </CharString>
          <CharString index="291">
            42 11 14 0 vhcurveto
            return
          </CharString>
          <CharString index="292">
            -117 293 -46 -47 hlineto
            -113 -56 -35 -96 hvcurveto
            -18 vlineto
            1 -44 16 -27 27 -16 275 callgsubr
            -30 -48 vvcurveto
            return
          </CharString>
          <CharString index="293">
            vlineto
            -104 68 -64 153 51 51 7 8 29 vhcurveto
            135 vlineto
            158 callsubr
            endchar
          </CharString>
          <CharString index="294">
            hlineto
            -392 -108 rmoveto
            108 return
          </CharString>
          <CharString index="295">
            154 callsubr
            276 return
          </CharString>
          <CharString index="296">
            -112 203 callgsubr
            return
          </CharString>
          <CharString index="297">
            hhcurveto
            125 74 55 119 hvcurveto
            102 -13 callsubr
            return
          </CharString>
          <CharString index="298">
            -30 5 46 hvcurveto
            -140 -15 hlineto
            -113 83 -44 138 vhcurveto
            return
          </CharString>
          <CharString index="299">
            vlineto
            70 -38 40 -83 -70 -26 -7 -5 -15 vhcurveto
            return
          </CharString>
          <CharString index="300">
            vlineto
            103 -54 40 -121 vhcurveto
            return
          </CharString>
          <CharString index="301">
            rmoveto
            244 callgsubr
            return
          </CharString>
          <CharString index="302">
            0 vhcurveto
            140 return
          </CharString>
          <CharString index="303">
            vlineto
            77 4 35 41 77 vvcurveto
            92 328 callsubr
            -110 rmoveto
            78 callgsubr
            return
          </CharString>
          <CharString index="304">
            vlineto
            -7 callsubr
            return
          </CharString>
          <CharString index="305">
            -45 callsubr
            174 170 return
          </CharString>
          <CharString index="306">
            19 -4 17 -8 15 vhcurveto
            155 hlineto
            -226 -301 rlineto
            156 hlineto
            53 73 32 44 15 28 15 41 rlinecurve
            return
          </CharString>
          <CharString index="307">
            rmoveto
            130 -351 -693 351 130 -201 156 174 130 -174 147 vlineto
            endchar
          </CharString>
          <CharString index="308">
            -108 -39 vlineto
            -76 callsubr
            return
          </CharString>
          <CharString index="309">
            vvcurveto
            -103 58 -55 123 43 35 2 5 31 vhcurveto
            126 vlineto
            -5 -40 -21 0 -43 hhcurveto
            -28 -18 2 25 return
          </CharString>
          <CharString index="310">
            2 callsubr
            -15 -36 -29 223 callgsubr
            -19 27 41 hvcurveto
            return
          </CharString>
          <CharString index="311">
            vlineto
            69 callsubr
            return
          </CharString>
          <CharString index="312">
            -36 hhcurveto
            -99 -42 -50 -96 hvcurveto
            -160 vlineto
            -103 62 -61 126 127 63 62 103 vhcurveto
            150 vlineto
            return
          </CharString>
          <CharString index="313">
            -54 callsubr
            -16 -2 -12 -5 -10 vhcurveto
            26 -29 -45 15 -65 hhcurveto
            570 209 rmoveto
            return
          </CharString>
          <CharString index="314">
            99 callsubr
            endchar
          </CharString>
          <CharString index="315">
            7 vlineto
            106 -58 36 -128 vhcurveto
            -24 hlineto
            return
          </CharString>
          <CharString index="316">
            hlineto
            27 7 -8 -22 hvcurveto
            return
          </CharString>
          <CharString index="317">
            316 434 rmoveto
            -131 120 rlineto
            131 hlineto
            return
          </CharString>
          <CharString index="318">
            -185 45 747 rmoveto
            -747 151 747 vlineto
            return
          </CharString>
          <CharString index="319">
            hhcurveto
            -46 -31 9 35 hvcurveto
            33 vlineto
            30 21 12 38 vhcurveto
            return
          </CharString>
          <CharString index="320">
            0 -53 10 -65 vhcurveto
            -117 vlineto
            65 53 10 0 hvcurveto
            return
          </CharString>
          <CharString index="321">
            111 -171 rlineto
            144 hlineto
            return
          </CharString>
          <CharString index="322">
            -35 callgsubr
            -113 return
          </CharString>
          <CharString index="323">
            34 115 vhcurveto
            25 vlineto
            19 return
          </CharString>
          <CharString index="324">
            vlineto
            27 -6 20 0 vhcurveto
            72 return
          </CharString>
          <CharString index="325">
            -117 78 -296 return
          </CharString>
          <CharString index="326">
            -117 277 return
          </CharString>
          <CharString index="327">
            398 395 rmoveto
            159 95 117 -533 -117 292 -55 -25 vlineto
            -128 -58 return
          </CharString>
          <CharString index="328">
            -103 35 -53 124 vhcurveto
            -47 callsubr
            150 vlineto
            29 17 20 42 return
          </CharString>
          <CharString index="329">
            -92 callsubr
            hlineto
            endchar
          </CharString>
          <CharString index="330">
            -50 -34 vlineto
            -113 -56 -39 -103 hvcurveto
            227 callgsubr
            return
          </CharString>
          <CharString index="331">
            -76 callgsubr
            -16 33 -58 return
          </CharString>
          <CharString index="332">
            385 14 callgsubr
            -425 -117 425 hlineto
            return
          </CharString>
          <CharString index="333">
            178 callsubr
            -42 callsubr
            return
          </CharString>
          <CharString index="334">
            -127 61 -62 149 57 42 10 10 30 vhcurveto
            return
          </CharString>
          <CharString index="335">
            -53 124 8 12 1 1 11 vhcurveto
            return
          </CharString>
          <CharString index="336">
            hhcurveto
            -71 -32 27 47 hvcurveto
            return
          </CharString>
          <CharString index="337">
            4 8 2 12 32 vvcurveto
            return
          </CharString>
          <CharString index="338">
            15 25 vhcurveto
            79 vlineto
            return
          </CharString>
          <CharString index="339">
            -60 -103 hvcurveto
            -20 139 15 vlineto
            20 6 19 33 vhcurveto
            8 hlineto
            33 6 -19 -20 hvcurveto
            return
          </CharString>
          <CharString index="340">
            42 14 callgsubr
            279 callgsubr
            72 hlineto
            return
          </CharString>
          <CharString index="341">
            hlineto
            36 -96 150 callsubr
            -51 111 rlineto
            80 24 28 53 86 vvcurveto
            172 vlineto
            return
          </CharString>
          <CharString index="342">
            397 rmoveto
            112 -98 rlineto
            -51 vlineto
            -7 -22 -14 -3 -24 hhcurveto
            -36 -16 15 25 hvcurveto
            return
          </CharString>
          <CharString index="343">
            64 vlineto
            45 -16 36 -33 25 vhcurveto
            33 25 16 38 50 vvcurveto
            151 79 vlineto
            endchar
          </CharString>
          <CharString index="344">
            hvcurveto
            -127 vlineto
            return
          </CharString>
          <CharString index="345">
            8 16 22 hvcurveto
            83 hlineto
            -161 -125 142 -25 66 57 23 20 24 21 return
          </CharString>
          <CharString index="346">
            -42 16 -33 59 58 17 314 callsubr
            endchar
          </CharString>
          <CharString index="347">
            hhcurveto
            -127 290 callsubr
            return
          </CharString>
          <CharString index="348">
            -117 77 -274 hlineto
            -103 43 -62 145 return
          </CharString>
          <CharString index="349">
            -30 -40 -61 -93 -58 vvcurveto
            -36 17 -21 44 vhcurveto
            return
          </CharString>
          <CharString index="350">
            141 416 vlineto
            return
          </CharString>
          <CharString index="351">
            123 50 60 93 return
          </CharString>
          <CharString index="352">
            -66 hlineto
            54 callsubr
            return
          </CharString>
          <CharString index="353">
            184 callsubr
            53 120 return
          </CharString>
          <CharString index="354">
            vlineto
            -123 -76 -44 -120 hvcurveto
            return
          </CharString>
          <CharString index="355">
            23 39 vvcurveto
            38 15 20 return
          </CharString>
          <CharString index="356">
            -117 270 return
          </CharString>
          <CharString index="357">
            29 5 -17 -22 hvcurveto
            -66 vlineto
            -23 -3 -15 -33 -12 -15 2 3 -9 vhcurveto
            return
          </CharString>
          <CharString index="358">
            160 callgsubr
            -39 229 callgsubr
            return
          </CharString>
          <CharString index="359">
            160 callgsubr
            -29 229 callgsubr
            return
          </CharString>
          <CharString index="360">
            rmoveto
            128 -130 rlineto
            -16 -11 -19 -12 -35 307 callgsubr
            return
          </CharString>
          <CharString index="361">
            -77 callsubr
            endchar
          </CharString>
          <CharString index="362">
            150 callsubr
            -57 124 rlineto
            40 27 return
          </CharString>
          <CharString index="363">
            -123 -52 -46 -113 hvcurveto
            -173 vlineto
            return
          </CharString>
          <CharString index="364">
            63 -131 -131 return
          </CharString>
          <CharString index="365">
            -45 -57 -103 hvcurveto
            return
          </CharString>
          <CharString index="366">
            141 141 return
          </CharString>
          <CharString index="367">
            554 rmoveto
            86 -253 hlineto
            13 callsubr
            return
          </CharString>
          <CharString index="368">
            -41 131 rlineto
            303 callgsubr
            return
          </CharString>
          <CharString index="369">
            hvcurveto
            -6 vlineto
            -32 -34 -2 -43 -56 -83 11 9 -40 vhcurveto
            -113 vlineto
            return
          </CharString>
          <CharString index="370">
            0 -27 6 -44 return
          </CharString>
          <CharString index="371">
            247 callsubr
            -48 vlineto
            -104 76 -49 123 return
          </CharString>
          <CharString index="372">
            rmoveto
            -76 -54 rlineto
            -105 vlineto
            76 54 rlineto
            -344 94 449 vlineto
            return
          </CharString>
          <CharString index="373">
            -59 -32 vlineto
            -22 -20 -1 -3 -18 hvcurveto
            return
          </CharString>
          <CharString index="374">
            28 14 14 40 40 14 -14 -28 vhcurveto
            return
          </CharString>
          <CharString index="375">
            8 27 292 callsubr
            return
          </CharString>
          <CharString index="376">
            rmoveto
            320 callgsubr
            return
          </CharString>
          <CharString index="377">
            -12 -24 -32 -31 12 -24 return
          </CharString>
          <CharString index="378">
            -117 93 -67 139 return
          </CharString>
          <CharString index="379">
            vlineto
            87 callsubr
            return
          </CharString>
          <CharString index="380">
            vlineto
            -23 -6 -16 -33 return
          </CharString>
          <CharString index="381">
            182 91 117 return
          </CharString>
          <CharString index="382">
            54 113 vhcurveto
            return
          </CharString>
          <CharString index="383">
            -117 321 -59 -47 vlineto
            -133 -63 -39 -120 hvcurveto
            return
          </CharString>
          <CharString index="384">
            -151 315 14 callgsubr
            -355 -117 355 hlineto
            return
          </CharString>
          <CharString index="385">
            143 hlineto
            37 100 rlineto
            1 hlineto
            37 -100 150 callsubr
            return
          </CharString>
          <CharString index="386">
            hlineto
            6 10 20 7 20 hhcurveto
            19 10 -8 -16 hvcurveto
            endchar
          </CharString>
          <CharString index="387">
            45 693 rmoveto
            return
          </CharString>
          <CharString index="388">
            316 callsubr
            -98 -53 -45 -70 -17 vhcurveto
            return
          </CharString>
          <CharString index="389">
            hlineto
            3 -15 -17 2 -18 hhcurveto
            -17 -29 -3 -4 -18 hvcurveto
            return
          </CharString>
          <CharString index="390">
            29 -26 -39 16 -48 hhcurveto
            -118 -49 -56 -103 -1 hvcurveto
            return
          </CharString>
          <CharString index="391">
            30 -9 17 0 vhcurveto
            81 230 callgsubr
            81 return
          </CharString>
          <CharString index="392">
            -63 297 callgsubr
            return
          </CharString>
          <CharString index="393">
            0 7 -3 callsubr
            -22 vlineto
            80 callsubr
            return
          </CharString>
          <CharString index="394">
            vlineto
            -27 -8 -19 -52 -52 -8 21 27 108 callgsubr
            return
          </CharString>
          <CharString index="395">
            172 vlineto
            67 -14 44 -40 21 vhcurveto
            75 vlineto
            endchar
          </CharString>
          <CharString index="396">
            -2 -11 154 callsubr
            return
          </CharString>
          <CharString index="397">
            258 callsubr
            -135 vlineto
            -103 return
          </CharString>
          <CharString index="398">
            vlineto
            -106 58 195 callgsubr
            return
          </CharString>
          <CharString index="399">
            330 callsubr
            -56 return
          </CharString>
          <CharString index="400">
            vlineto
            88 -54 38 -71 return
          </CharString>
          <CharString index="401">
            hmoveto
            114 -84 hlineto
            return
          </CharString>
          <CharString index="402">
            rlineto
            173 hlineto
            return
          </CharString>
          <CharString index="403">
            117 vlineto
            endchar
          </CharString>
          <CharString index="404">
            hlineto
            -26 -183 rlineto
            132 hlineto
            26 183 rlineto
            return
          </CharString>
          <CharString index="405">
            -64 vlineto
            328 callgsubr
            return
          </CharString>
          <CharString index="406">
            vlineto
            -2 -14 -14 289 callsubr
            return
          </CharString>
          <CharString index="407">
            67 callgsubr
            97 return
          </CharString>
          <CharString index="408">
            216 26 callgsubr
            return
          </CharString>
          <CharString index="409">
            261 14 callgsubr
            -301 -117 301 hlineto
            return
          </CharString>
          <CharString index="410">
            -20 -8 -18 -37 -37 -8 20 20 vhcurveto
            149 vlineto
            return
          </CharString>
          <CharString index="411">
            56 14 30 40 40 -14 30 -56 -56 -14 -30 -40 return
          </CharString>
          <CharString index="412">
            275 callsubr
            5 vlineto
            endchar
          </CharString>
          <CharString index="413">
            -24 -6 -22 -35 vhcurveto
            -72 return
          </CharString>
          <CharString index="414">
            135 callgsubr
            vlineto
            return
          </CharString>
          <CharString index="415">
            -117 288 return
          </CharString>
          <CharString index="416">
            -63 -98 vhcurveto
            endchar
          </CharString>
          <CharString index="417">
            139 -141 rlineto
            -10 -16 -25 -7 -35 hhcurveto
            return
          </CharString>
          <CharString index="418">
            vvcurveto
            324 callsubr
            return
          </CharString>
          <CharString index="419">
            224 rmoveto
            146 callgsubr
            return
          </CharString>
          <CharString index="420">
            26 183 rlineto
            -132 hlineto
            -26 -183 rlineto
            return
          </CharString>
          <CharString index="421">
            33 42 42 -17 33 -58 107 callgsubr
            return
          </CharString>
          <CharString index="422">
            hhcurveto
            259 callgsubr
            -17 -19 -38 -29 -5 -45 return
          </CharString>
          <CharString index="423">
            490 rmoveto
            263 callsubr
            return
          </CharString>
          <CharString index="424">
            130 554 82 117 return
          </CharString>
          <CharString index="425">
            140 671 -140 hlineto
            return
          </CharString>
          <CharString index="426">
            vlineto
            -23 -14 -9 -25 vhcurveto
            -40 return
          </CharString>
          <CharString index="427">
            -35 -6 14 24 vhcurveto
            return
          </CharString>
          <CharString index="428">
            vlineto
            29 14 20 return
          </CharString>
          <CharString index="429">
            2 callsubr
            endchar
          </CharString>
          <CharString index="430">
            308 callsubr
            hlineto
            0 10 -3 callsubr
            return
          </CharString>
          <CharString index="431">
            196 vlineto
            218 callgsubr
            return
          </CharString>
          <CharString index="432">
            -70 callsubr
            80 hlineto
            -3 return
          </CharString>
          <CharString index="433">
            47 hvcurveto
            4 vlineto
            77 4 35 41 77 vvcurveto
            return
          </CharString>
          <CharString index="434">
            328 -136 -13 hlineto
            -33 -18 -14 -37 return
          </CharString>
          <CharString index="435">
            214 callgsubr
            -202 return
          </CharString>
          <CharString index="436">
            -59 -16 -33 -42 return
          </CharString>
          <CharString index="437">
            rlinecurve
            2 hlineto
            -8 return
          </CharString>
        <CharString name=".notdef">
          330 160 hmoveto
          436 701 -436 hlineto
          81 -76 rmoveto
          275 -549 -275 hlineto
          endchar
        </CharString>
        <CharString name="A">
          63 196 287 -63 callgsubr
        </CharString>
        <CharString name="AE">
          299 247 287 rmoveto
          108 302 rlineto
          -302 vlineto
          341 276 rmoveto
          130 -430 vlineto
          -266 -693 rlineto
          145 hlineto
          57 160 rlineto
          153 -160 341 130 -201 156 174 130 -174 147 hlineto
          endchar
        </CharString>
        <CharString name="Aacute">
          63 352 847 209 callgsubr
          -81 -445 -63 callgsubr
        </CharString>
        <CharString name="Abreve">
          63 285 847 66 callsubr
          -166 -560 -63 callgsubr
        </CharString>
        <CharString name="Acircumflex">
          63 250 786 -11 callsubr
          -13 -445 -63 callgsubr
        </CharString>
        <CharString name="Adieresis">
          63 328 735 rmoveto
          93 callgsubr
          -171 hmoveto
          93 callgsubr
          39 -448 -63 callgsubr
        </CharString>
        <CharString name="Agrave">
          63 282 732 301 callgsubr
          -7 -445 -63 callgsubr
        </CharString>
        <CharString name="Amacron">
          63 376 828 rmoveto
          -267 -77 267 hlineto
          -180 -464 -63 callgsubr
        </CharString>
        <CharString name="Aogonek">
          63 196 287 rmoveto
          46 268 48 -268 rlineto
          194 -287 rmoveto
          -134 693 rlineto
          -209 hlineto
          -136 -693 150 callsubr
          27 160 rlineto
          137 hlineto
          29 -160 rlineto
          91 hlineto
          -7 callsubr
          endchar
        </CharString>
        <CharString name="Aring">
          63 242 817 rmoveto
          17 11 -12 -16 -18 -11 -11 -17 -17 -11 11 18 16 11 12 17 hvcurveto
          -108 vmoveto
          53 28 36 44 44 -28 35 -53 -52 -29 -35 -44 -44 29 -36 52 hvcurveto
          -46 -422 -63 callgsubr
        </CharString>
        <CharString name="Atilde">
          63 171 736 rmoveto
          26 5 11 16 vhcurveto
          24 32 -39 48 hhcurveto
          60 28 42 63 1 hvcurveto
          5 -79 -4 vlineto
          -25 -5 -11 -16 vhcurveto
          -24 -28 39 -52 hhcurveto
          -60 -28 -43 -65 -1 hvcurveto
          -2 79 vlineto
          25 -446 -63 callgsubr
        </CharString>
        <CharString name="B">
          67 310 169 rmoveto
          -32 -17 -11 -30 vhcurveto
          -68 157 68 hlineto
          30 17 -11 -32 hvcurveto
          -53 327 rmoveto
          30 17 -11 -32 hvcurveto
          -65 vlineto
          -32 -17 -11 -30 vhcurveto
          -62 151 hlineto
          257 -33 rmoveto
          116 -64 43 -106 vhcurveto
          -237 -693 243 hlineto
          106 64 43 116 hvcurveto
          71 vlineto
          57 -18 49 -59 14 vhcurveto
          54 17 17 47 55 vvcurveto
          endchar
        </CharString>
        <CharString name="C">
          -14 35 529 rmoveto
          -366 vlineto
          -104 68 -64 153 51 51 7 8 29 vhcurveto
          135 vlineto
          158 callsubr
          336 vlineto
          39 callsubr
          endchar
        </CharString>
        <CharString name="CR">
          -426 endchar
        </CharString>
        <CharString name="Cacute">
          -14 252 847 -34 callsubr
          -327 -318 rmoveto
          -366 vlineto
          -104 68 -64 153 51 51 7 8 29 vhcurveto
          135 vlineto
          158 callsubr
          336 vlineto
          39 callsubr
          endchar
        </CharString>
        <CharString name="Ccaron">
          -14 190 732 -39 callsubr
          57 -333 rmoveto
          39 callsubr
          -366 186 callsubr
        </CharString>
        <CharString name="Ccedilla">
          -14 387 145 rmoveto
          158 callsubr
          336 vlineto
          39 callsubr
          -366 vlineto
          -90 51 -60 113 -15 vhcurveto
          -16 -75 73 callsubr
          8 34 48 1 48 6 28 8 rlinecurve
          endchar
        </CharString>
        <CharString name="D">
          67 178 callgsubr
          121 callgsubr
          20 -160 rmoveto
          -358 vlineto
          306 callsubr
          441 72 hlineto
          35 6 -17 -20 hvcurveto
          endchar
        </CharString>
        <CharString name="Dcaron">
          67 181 732 -39 callsubr
          187 -672 rmoveto
          306 callsubr
          441 72 hlineto
          35 6 -17 -20 hvcurveto
          -263 160 rmoveto
          -693 121 callgsubr
          endchar
        </CharString>
        <CharString name="Dcroat">
          92 callgsubr
        </CharString>
        <CharString name="E">
          -5 45 693 113 callsubr
        </CharString>
        <CharString name="Eacute">
          -5 221 847 -34 callsubr
          -286 -154 113 callsubr
        </CharString>
        <CharString name="Ecaron">
          -5 162 732 -39 callsubr
          294 -284 200 callsubr
        </CharString>
        <CharString name="Ecircumflex">
          -5 214 786 -11 callsubr
          223 -169 200 callsubr
        </CharString>
        <CharString name="Edieresis">
          -5 78 789 rmoveto
          -79 callgsubr
          171 hmoveto
          -79 callgsubr
          -204 -96 113 callsubr
        </CharString>
        <CharString name="Edotaccent">
          -5 45 693 -17 callgsubr
          -233 96 rmoveto
          -79 callgsubr
          endchar
        </CharString>
        <CharString name="Egrave">
          -5 45 693 -17 callgsubr
          -288 154 63 callgsubr
        </CharString>
        <CharString name="Emacron">
          -5 45 693 -17 callgsubr
          -314 135 180 callgsubr
          endchar
        </CharString>
        <CharString name="Eogonek">
          -5 396 563 rmoveto
          130 -351 -693 298 197 callsubr
          130 -201 156 174 130 -174 147 vlineto
          endchar
        </CharString>
        <CharString name="Eth">
          92 callgsubr
        </CharString>
        <CharString name="Euro">
          46 224 231 rmoveto
          100 98 -100 40 100 98 -100 47 hlineto
          39 callsubr
          -62 -52 -98 52 -40 -52 -98 52 -68 186 callsubr
        </CharString>
        <CharString name="F">
          -23 178 callgsubr
          152 257 176 134 -176 171 191 131 vlineto
          endchar
        </CharString>
        <CharString name="G">
          4 callgsubr
          endchar
        </CharString>
        <CharString name="Gbreve">
          4 callgsubr
          259 321 66 callsubr
          endchar
        </CharString>
        <CharString name="H">
          106 335 693 rmoveto
          -285 -138 285 -152 -693 152 274 138 -274 292 callgsubr
        </CharString>
        <CharString name="I">
          165 callgsubr
          endchar
        </CharString>
        <CharString name="Iacute">
          -5 222 847 -34 callsubr
          -287 -154 113 callsubr
        </CharString>
        <CharString name="Icircumflex">
          -184 121 786 -11 callsubr
          -35 -732 rmoveto
          152 693 -152 hlineto
          endchar
        </CharString>
        <CharString name="Idieresis">
          165 callgsubr
          -220 96 62 callsubr
        </CharString>
        <CharString name="Idotaccent">
          165 callgsubr
          -136 96 rmoveto
          -79 callgsubr
          endchar
        </CharString>
        <CharString name="Igrave">
          -5 45 693 -17 callgsubr
          -291 154 63 callgsubr
        </CharString>
        <CharString name="Imacron">
          165 callgsubr
          -206 135 180 callgsubr
          endchar
        </CharString>
        <CharString name="Iogonek">
          -184 197 693 rmoveto
          -152 -693 99 hlineto
          -7 callsubr
          endchar
        </CharString>
        <CharString name="J">
          -179 50 693 rmoveto
          -486 vlineto
          -94 -15 -63 -28 -96 vhcurveto
          -30 -103 rlineto
          159 hlineto
          31 103 rlineto
          29 96 6 50 108 vvcurveto
          485 vlineto
          endchar
        </CharString>
        <CharString name="K">
          60 481 hmoveto
          -139 358 181 callgsubr
          endchar
        </CharString>
        <CharString name="L">
          -39 178 callgsubr
          337 126 -185 567 vlineto
          endchar
        </CharString>
        <CharString name="Lacute">
          -39 122 847 -34 callsubr
          -187 -154 rmoveto
          -693 337 126 -185 567 vlineto
          endchar
        </CharString>
        <CharString name="Lcaron">
          -39 62 732 -39 callsubr
          195 -721 rmoveto
          567 -152 -693 337 126 vlineto
          endchar
        </CharString>
        <CharString name="Lslash">
          -37 207 126 rmoveto
          200 vlineto
          86 35 rlineto
          100 vlineto
          -86 -35 rlineto
          267 -152 -329 vlineto
          -55 -23 rlineto
          -100 vlineto
          55 23 rlineto
          -264 337 126 vlineto
          endchar
        </CharString>
        <CharString name="M">
          223 449 693 rmoveto
          -125 -354 -125 354 rlineto
          -154 -693 144 241 hlineto
          112 -19 93 0 vhcurveto
          96 -270 rlineto
          116 hlineto
          96 270 rlineto
          0 -19 -93 -112 vvcurveto
          -241 145 693 vlineto
          endchar
        </CharString>
        <CharString name="N">
          106 339 693 -43 callgsubr
        </CharString>
        <CharString name="NULL">
          -426 endchar
        </CharString>
        <CharString name="Nacute">
          106 365 847 209 callgsubr
          49 -39 -43 callgsubr
        </CharString>
        <CharString name="Ncaron">
          106 204 732 -39 callsubr
          195 -154 -43 callgsubr
        </CharString>
        <CharString name="Ntilde">
          106 204 736 rmoveto
          26 5 11 16 vhcurveto
          24 32 -39 48 hhcurveto
          60 28 42 63 1 hvcurveto
          5 -79 -4 vlineto
          -25 -5 -11 -16 vhcurveto
          -24 -28 39 -52 hhcurveto
          -60 -28 -43 -65 -1 hvcurveto
          -2 79 vlineto
          135 -40 -43 callgsubr
        </CharString>
        <CharString name="O">
          89 callgsubr
          endchar
        </CharString>
        <CharString name="OE">
          286 246 129 rmoveto
          -35 -6 22 24 hvcurveto
          358 vlineto
          20 6 17 35 vhcurveto
          88 -441 hlineto
          351 434 rmoveto
          130 -460 vlineto
          -106 -64 -51 -103 hvcurveto
          -376 vlineto
          -102 46 -61 115 vhcurveto
          469 130 -201 156 174 130 -174 147 hlineto
          endchar
        </CharString>
        <CharString name="Oacute">
          63 257 847 -34 callsubr
          -332 -323 -73 callgsubr
          endchar
        </CharString>
        <CharString name="Ocircumflex">
          63 247 786 -11 callsubr
          98 -555 rmoveto
          -31 -18 -19 -42 -42 -17 20 30 vhcurveto
          339 vlineto
          31 17 19 42 42 18 -20 -30 vhcurveto
          -269 -347 rmoveto
          -106 68 195 callgsubr
          69 73 106 vhcurveto
          355 vlineto
          106 -69 73 -141 -141 -68 -73 -106 vhcurveto
          endchar
        </CharString>
        <CharString name="Odieresis">
          63 101 789 rmoveto
          -79 callgsubr
          171 hmoveto
          -79 callgsubr
          -237 -265 -73 callgsubr
          endchar
        </CharString>
        <CharString name="Ograve">
          89 callgsubr
          -176 331 63 callgsubr
        </CharString>
        <CharString name="Ohungarumlaut">
          63 312 847 44 callsubr
          -257 -323 -73 callgsubr
          endchar
        </CharString>
        <CharString name="Omacron">
          63 112 828 180 callgsubr
          -344 -304 -73 callgsubr
          endchar
        </CharString>
        <CharString name="Oslash">
          63 304 177 rmoveto
          -31 -18 -19 -42 -26 -17 8 13 -9 vhcurveto
          112 228 rlineto
          -119 140 rmoveto
          31 17 19 42 27 17 -8 -13 8 vhcurveto
          -111 -228 rlineto
          274 376 rmoveto
          -90 hlineto
          -7 -13 rlineto
          15 -31 -39 8 -48 hhcurveto
          -141 -68 -73 -106 hvcurveto
          -355 vlineto
          -39 9 -35 19 -28 vhcurveto
          -33 -67 rlineto
          90 hlineto
          6 13 rlineto
          -15 32 39 -8 47 hhcurveto
          141 69 73 106 hvcurveto
          355 vlineto
          39 -9 34 -19 28 vhcurveto
          endchar
        </CharString>
        <CharString name="Otilde">
          89 callgsubr
          5 328 -21 callgsubr
        </CharString>
        <CharString name="P">
          44 178 callgsubr
          151 200 75 vlineto
          106 68 51 103 hvcurveto
          185 vlineto
          103 -68 51 -106 vhcurveto
          24 -172 rmoveto
          -149 vlineto
          -30 -13 -12 -30 vhcurveto
          -56 233 56 hlineto
          30 13 -12 -30 hvcurveto
          endchar
        </CharString>
        <CharString name="Q">
          63 185 516 rmoveto
          31 17 19 42 42 18 -20 -30 vhcurveto
          -339 vlineto
          -31 -18 -19 -42 -42 -17 20 30 vhcurveto
          323 -264 rmoveto
          -116 119 rlineto
          42 32 20 47 58 vvcurveto
          355 vlineto
          106 -69 73 -141 -141 -68 -73 -106 vhcurveto
          -355 vlineto
          -106 68 -73 141 vhcurveto
          13 hlineto
          74 -77 rlineto
          endchar
        </CharString>
        <CharString name="R">
          56 195 565 16 callsubr
        </CharString>
        <CharString name="Racute">
          56 339 847 209 callgsubr
          -69 -167 16 callsubr
        </CharString>
        <CharString name="Rcaron">
          56 172 732 -39 callsubr
          83 -282 16 callsubr
        </CharString>
        <CharString name="S">
          13 20 531 -57 callgsubr
          endchar
        </CharString>
        <CharString name="Sacute">
          13 226 847 -34 callsubr
          -316 -316 -57 callgsubr
          endchar
        </CharString>
        <CharString name="Scaron">
          13 161 732 -39 callsubr
          124 -423 rmoveto
          -42 23 -9 12 37 vvcurveto
          15 vlineto
          26 10 22 58 61 43 -11 -15 35 vhcurveto
          144 vlineto
          8 -19 -49 13 -74 hhcurveto
          -152 -67 -64 -103 hvcurveto
          -63 vlineto
          -75 40 -45 57 -32 vhcurveto
          107 -58 rlineto
          34 -18 11 -11 -31 vvcurveto
          -15 vlineto
          -28 -24 -21 -63 -61 -57 14 15 -35 vhcurveto
          -145 vlineto
          -8 19 62 -15 74 hhcurveto
          158 79 62 106 hvcurveto
          62 vlineto
          67 -29 39 -53 29 vhcurveto
          endchar
        </CharString>
        <CharString name="T">
          -14 407 693 119 callgsubr
        </CharString>
        <CharString name="Tcaron">
          -14 151 732 -39 callsubr
          316 -154 119 callgsubr
        </CharString>
        <CharString name="Thorn">
          27 299 274 rmoveto
          -30 -13 -12 -30 vhcurveto
          -57 230 57 hlineto
          30 13 -12 -30 hvcurveto
          -100 170 rmoveto
          103 -144 -693 144 104 70 vlineto
          106 68 51 103 hvcurveto
          178 vlineto
          103 -68 51 -106 vhcurveto
          endchar
        </CharString>
        <CharString name="U">
          64 callgsubr
          endchar
        </CharString>
        <CharString name="Uacute">
          69 251 847 -34 callsubr
          -56 -154 -46 callsubr
          endchar
        </CharString>
        <CharString name="Ucircumflex">
          69 248 786 -11 callsubr
          98 -39 -46 callsubr
          endchar
        </CharString>
        <CharString name="Udieresis">
          69 103 789 rmoveto
          -79 callgsubr
          171 hmoveto
          -79 callgsubr
          31 -96 -46 callsubr
          endchar
        </CharString>
        <CharString name="Ugrave">
          64 callgsubr
          -321 154 63 callgsubr
        </CharString>
        <CharString name="Uhungarumlaut">
          64 callgsubr
          -143 154 44 callsubr
          endchar
        </CharString>
        <CharString name="Umacron">
          64 callgsubr
          -342 135 180 callgsubr
          endchar
        </CharString>
        <CharString name="Uogonek">
          69 305 693 rmoveto
          -516 vlineto
          -31 -16 -19 -42 -42 -15 20 30 vhcurveto
          516 -150 -524 vlineto
          -106 66 -73 141 11 10 0 1 10 vhcurveto
          -27 -28 -19 -36 -37 vvcurveto
          -50 34 -30 61 vhcurveto
          24 69 -11 hlineto
          -19 -10 11 25 35 16 33 20 23 hvcurveto
          73 27 35 59 77 vvcurveto
          524 vlineto
          endchar
        </CharString>
        <CharString name="Uring">
          69 166 789 18 callsubr
          30 -96 -46 callsubr
          endchar
        </CharString>
        <CharString name="V">
          59 324 693 rmoveto
          -46 -295 rlineto
          -14 -89 -19 -179 0 vvcurveto
          0 -20 178 -16 92 vhcurveto
          -51 293 rlineto
          -153 hlineto
          134 -693 rlineto
          209 hlineto
          132 693 rlineto
          endchar
        </CharString>
        <CharString name="W">
          167 459 693 rmoveto
          -33 -228 rlineto
          -12 -84 -5 -100 0 vvcurveto
          0 -11 100 -10 84 vhcurveto
          -26 228 rlineto
          -127 hlineto
          -28 -228 rlineto
          -11 -93 -11 -98 0 vvcurveto
          0 -4 98 -13 93 vhcurveto
          -32 228 rlineto
          -131 hlineto
          89 -693 150 callsubr
          42 274 rlineto
          12 80 8 111 0 vvcurveto
          0 10 -111 12 -80 vhcurveto
          41 -274 rlineto
          134 hlineto
          92 693 rlineto
          endchar
        </CharString>
        <CharString name="X">
          42 301 693 rmoveto
          -65 -191 -69 191 rlineto
          -162 hlineto
          148 -348 -148 -345 rlineto
          163 hlineto
          68 189 64 -189 rlineto
          163 hlineto
          -149 345 149 348 rlineto
          endchar
        </CharString>
        <CharString name="Y">
          56 332 693 64 callsubr
          endchar
        </CharString>
        <CharString name="Yacute">
          56 332 693 64 callsubr
          -238 155 172 callsubr
        </CharString>
        <CharString name="Ydieresis">
          56 100 789 rmoveto
          -79 callgsubr
          171 hmoveto
          -79 callgsubr
          61 -96 64 callsubr
          endchar
        </CharString>
        <CharString name="Z">
          168 callsubr
          endchar
        </CharString>
        <CharString name="Zacute">
          -1 214 847 -34 callsubr
          -300 -154 186 callgsubr
          endchar
        </CharString>
        <CharString name="Zcaron">
          -1 154 732 -39 callsubr
          83 -720 rmoveto
          224 445 rlineto
          121 -377 131 callgsubr
          vlineto
          endchar
        </CharString>
        <CharString name="Zdotaccent">
          168 callsubr
          -244 96 rmoveto
          -79 callgsubr
          endchar
        </CharString>
        <CharString name="a">
          -92 callgsubr
          endchar
        </CharString>
        <CharString name="aacute">
          -92 callgsubr
          -42 506 172 callsubr
        </CharString>
        <CharString name="abreve">
          -92 callgsubr
          3 506 66 callsubr
          endchar
        </CharString>
        <CharString name="acircumflex">
          11 215 686 -11 callsubr
          78 -512 rmoveto
          -7 -13 -20 -4 -17 hhcurveto
          -26 -9 13 21 hvcurveto
          28 vlineto
          38 5 11 34 9 vhcurveto
          46 12 rlineto
          -202 202 rmoveto
          7 18 59 14 60 hhcurveto
          51 14 -14 -33 1 hvcurveto
          -55 vlineto
          -109 -28 rlineto
          -87 -24 -38 -43 -90 vvcurveto
          -34 vlineto
          -101 41 -44 94 57 31 23 22 14 vhcurveto
          -43 243 callsubr
          115 -48 64 -146 -71 -56 -10 -9 -26 vhcurveto
          endchar
        </CharString>
        <CharString name="acute">
          -76 142 747 172 callsubr
        </CharString>
        <CharString name="adieresis">
          -92 callgsubr
          -185 448 62 callsubr
        </CharString>
        <CharString name="ae">
          229 318 572 rmoveto
          15 -29 -39 8 -50 hhcurveto
          -71 -59 -14 -7 -20 hvcurveto
          -132 vlineto
          7 18 58 15 61 hhcurveto
          53 11 -18 -20 hvcurveto
          1 -57 -108 -34 rlineto
          -85 -26 -35 -42 -90 vvcurveto
          -35 vlineto
          -100 56 -46 95 66 47 9 20 32 vhcurveto
          -20 33 45 -11 61 hhcurveto
          85 32 10 9 33 hvcurveto
          132 vlineto
          -6 -20 -52 -14 -63 hhcurveto
          -53 -26 11 44 hvcurveto
          56 228 203 vlineto
          98 -52 63 -131 -52 -40 -10 -18 -30 vhcurveto
          -63 -451 rmoveto
          -9 -18 -21 -3 -14 hhcurveto
          -19 -16 9 25 hvcurveto
          28 vlineto
          38 5 12 34 9 vhcurveto
          49 13 rlineto
          229 194 rmoveto
          -86 -90 86 vlineto
          25 19 13 27 27 17 -13 -25 vhcurveto
          endchar
        </CharString>
        <CharString name="agrave">
          -92 callgsubr
          -154 506 63 callgsubr
        </CharString>
        <CharString name="amacron">
          -92 callgsubr
          -163 487 180 callgsubr
          endchar
        </CharString>
        <CharString name="ampersand">
          78 303 177 rmoveto
          -31 -10 -20 -41 -41 -8 21 30 vhcurveto
          71 vlineto
          33 14 15 37 vhcurveto
          49 hlineto
          194 128 rmoveto
          -50 66 -144 -66 -49 hlineto
          -38 -11 15 36 hvcurveto
          39 vlineto
          30 15 18 65 52 37 -4 -13 34 vhcurveto
          140 vlineto
          9 -27 -42 5 -58 hhcurveto
          -156 -70 -65 -102 hvcurveto
          -60 vlineto
          -59 29 -35 39 -13 vhcurveto
          -44 -13 -26 -34 -60 vvcurveto
          -85 291 callsubr
          54 73 106 vhcurveto
          123 50 vlineto
          endchar
        </CharString>
        <CharString name="aogonek">
          11 252 120 rmoveto
          -7 -13 -20 -4 -17 hhcurveto
          -26 -9 13 21 hvcurveto
          28 vlineto
          38 5 11 34 9 vhcurveto
          46 12 rlineto
          -202 202 rmoveto
          7 18 59 14 60 hhcurveto
          51 14 -14 -33 1 hvcurveto
          -55 vlineto
          -109 -28 rlineto
          -87 -24 -38 -43 -90 vvcurveto
          -34 vlineto
          -101 41 -44 94 57 31 23 22 14 vhcurveto
          -43 87 197 callsubr
          1 416 hlineto
          115 -48 64 -146 -71 -56 -10 -9 -26 vhcurveto
          endchar
        </CharString>
        <CharString name="apostrophemod">
          -221 67 733 153 callsubr
        </CharString>
        <CharString name="approxequal">
          199 457 315 31 callsubr
          -134 230 31 callsubr
          endchar
        </CharString>
        <CharString name="aring">
          -92 callgsubr
          -124 448 18 callsubr
          endchar
        </CharString>
        <CharString name="asciicircum">
          15 439 400 rmoveto
          -135 337 rlineto
          -168 hlineto
          -136 -337 rlineto
          149 hlineto
          71 233 70 -233 rlineto
          endchar
        </CharString>
        <CharString name="asciitilde">
          199 457 442 31 callsubr
          endchar
        </CharString>
        <CharString name="asterisk">
          130 528 605 rmoveto
          -43 133 -84 -28 -25 -8 -20 -9 -16 -10 rlinecurve
          4 18 3 22 26 vvcurveto
          89 -140 -89 vlineto
          -26 3 -21 4 -18 vhcurveto
          -16 9 -19 10 -25 8 -85 27 rcurveline
          -43 -133 84 -27 25 -8 22 -4 19 -2 rlinecurve
          -14 -12 -15 -16 -16 -21 -52 -72 rcurveline
          113 -82 52 71 15 21 11 19 7 17 rlinecurve
          7 -17 10 -19 15 -21 53 -71 rcurveline
          113 82 -52 71 -16 21 -15 17 -14 12 rlinecurve
          19 1 22 4 25 8 rrcurveto
          endchar
        </CharString>
        <CharString name="at">
          491 491 154 rmoveto
          0 -20 -8 -15 -25 -3 6 15 vhcurveto
          31 vlineto
          24 5 8 21 8 vhcurveto
          37 13 rlineto
          66 -390 rmoveto
          117 -92 vlineto
          -263 -17 128 179 178 14 131 266 268 10 -126 -181 -135 -19 -36 -55 -48 -18 19 47 hvcurveto
          232 vlineto
          82 -46 36 -104 -54 -47 -11 -6 -20 vhcurveto
          -97 vlineto
          7 23 43 12 55 hhcurveto
          33 5 -11 -18 hvcurveto
          -59 vlineto
          -95 -35 rlineto
          -57 -22 -23 -36 -62 vvcurveto
          -28 vlineto
          -71 32 -42 78 45 28 9 8 17 vhcurveto
          -43 28 53 -20 62 hhcurveto
          127 81 66 214 249 -69 174 -333 -327 -79 -179 -246 -247 75 -177 330 hvcurveto
          endchar
        </CharString>
        <CharString name="atilde">
          -92 callgsubr
          27 503 -21 callgsubr
        </CharString>
        <CharString name="b">
          37 45 747 rmoveto
          -747 230 256 callgsubr
          -55 38 -71 -49 -37 -8 -7 -20 vhcurveto
          169 vlineto
          79 -317 rmoveto
          -259 319 callsubr
          304 hlineto
          6 10 20 5 20 hhcurveto
          19 10 -8 -16 hvcurveto
          endchar
        </CharString>
        <CharString name="backslash">
          61 39 869 rmoveto
          270 -1052 rlineto
          140 hlineto
          -271 1052 rlineto
          endchar
        </CharString>
        <CharString name="bar">
          61 880 rmoveto
          -1070 100 1070 vlineto
          endchar
        </CharString>
        <CharString name="braceleft">
          -14 258 684 rmoveto
          24 12 15 27 vhcurveto
          45 129 -56 hlineto
          -102 -56 -72 -103 hvcurveto
          -217 vlineto
          -40 -26 -19 -43 vhcurveto
          -5 -129 5 hlineto
          43 26 -19 -40 hvcurveto
          -218 vlineto
          -103 56 -72 102 vhcurveto
          56 129 -45 hlineto
          -27 -12 15 24 hvcurveto
          198 vlineto
          86 -18 51 -75 14 vhcurveto
          75 16 18 58 86 vvcurveto
          endchar
        </CharString>
        <CharString name="braceright">
          -17 347 401 rmoveto
          -43 -26 19 40 hvcurveto
          217 vlineto
          103 -56 72 -102 vhcurveto
          -56 -129 45 hlineto
          27 12 -15 -24 hvcurveto
          -187 vlineto
          -86 18 -58 75 -16 vhcurveto
          -75 -14 -18 -51 -86 vvcurveto
          -198 vlineto
          -24 -12 -15 -27 vhcurveto
          -45 -129 56 hlineto
          102 56 72 103 hvcurveto
          218 vlineto
          40 26 19 43 vhcurveto
          5 129 hlineto
          endchar
        </CharString>
        <CharString name="bracketleft">
          -52 209 -65 rmoveto
          817 120 117 -241 -1052 241 118 vlineto
          endchar
        </CharString>
        <CharString name="bracketright">
          -52 44 869 rmoveto
          -117 120 -817 -120 -118 241 1052 vlineto
          endchar
        </CharString>
        <CharString name="breve">
          -76 218 747 66 callsubr
          endchar
        </CharString>
        <CharString name="brokenbar">
          -201 61 880 rmoveto
          -390 100 390 vlineto
          -100 -680 rmoveto
          -390 100 390 vlineto
          endchar
        </CharString>
        <CharString name="bullet">
          -174 24 338 rmoveto
          -56 22 -44 78 77 23 44 56 56 -23 44 -77 -78 -22 -44 -56 vhcurveto
          endchar
        </CharString>
        <CharString name="c">
          -50 35 421 rmoveto
          -252 vlineto
          -116 67 -58 129 63 29 6 9 33 vhcurveto
          28 callsubr
          139 vlineto
          164 callsubr
          endchar
        </CharString>
        <CharString name="cacute">
          -50 232 747 -34 callsubr
          -307 -326 rmoveto
          -252 vlineto
          -116 67 -58 129 63 29 6 9 33 vhcurveto
          28 callsubr
          139 vlineto
          164 callsubr
          endchar
        </CharString>
        <CharString name="caron">
          -76 215 747 rmoveto
          -40 -54 -41 54 rlineto
          -73 hlineto
          60 -115 rlineto
          107 hlineto
          60 115 rlineto
          endchar
        </CharString>
        <CharString name="ccaron">
          -50 176 632 -39 callsubr
          240 -167 rmoveto
          164 callsubr
          -252 vlineto
          -116 67 -58 129 63 29 6 9 33 vhcurveto
          183 callgsubr
        </CharString>
        <CharString name="ccedilla">
          -50 356 580 rmoveto
          164 callsubr
          -252 vlineto
          -99 49 -57 94 -14 vhcurveto
          -16 -76 73 callsubr
          8 34 55 1 28 6 31 8 rlinecurve
          183 callgsubr
        </CharString>
        <CharString name="cedilla">
          -76 139 6 rmoveto
          -18 -83 73 callsubr
          10 45 rlineto
          endchar
        </CharString>
        <CharString name="cent">
          -47 358 580 rmoveto
          -19 5 -17 4 -23 3 rrcurveto
          63 -140 -68 vlineto
          -81 -19 -41 -56 -91 vvcurveto
          -252 vlineto
          -89 39 -55 77 -21 vhcurveto
          -71 140 65 vlineto
          26 2 19 4 20 6 rrcurveto
          183 callgsubr
        </CharString>
        <CharString name="circumflex">
          -76 288 632 rmoveto
          -60 115 rlineto
          -107 hlineto
          -60 -115 rlineto
          73 hlineto
          41 54 40 -54 rlineto
          endchar
        </CharString>
        <CharString name="colon">
          -169 38 419 rmoveto
          10 callgsubr
          -351 vmoveto
          10 callgsubr
          endchar
        </CharString>
        <CharString name="comma">
          -206 221 callgsubr
          endchar
        </CharString>
        <CharString name="copyright">
          282 35 335 rmoveto
          -195 58 -140 261 259 60 143 192 197 -56 139 -263 -258 -61 -142 -194 vhcurveto
          191 63 rmoveto
          -123 vlineto
          -74 39 -43 97 50 28 10 0 vhcurveto
          88 vlineto
          -6 -38 -14 0 -24 hhcurveto
          -33 -3 11 17 hvcurveto
          117 vlineto
          17 3 11 33 24 14 -1 -6 38 vhcurveto
          89 vlineto
          0 -28 10 -50 -97 -39 -43 -74 vhcurveto
          339 -63 rmoveto
          -134 -13 -99 -198 -201 -10 96 137 136 8 97 203 205 6 -95 -138 vhcurveto
          endchar
        </CharString>
        <CharString name="currency">
          34 176 399 rmoveto
          33 17 20 40 40 17 -21 -32 vhcurveto
          -105 vlineto
          -33 -17 -20 -40 -40 -17 21 32 vhcurveto
          259 110 rmoveto
          34 -6 30 -13 25 vhcurveto
          49 49 -85 85 -56 -57 rlineto
          8 -26 -30 5 -35 hhcurveto
          -35 -30 -4 -9 -25 hvcurveto
          -56 57 -85 -85 48 -48 rlineto
          -13 -26 -6 -30 -34 vvcurveto
          -115 vlineto
          -33 6 -31 13 -25 vhcurveto
          -49 -49 85 -85 56 57 rlineto
          -8 26 30 -5 35 hhcurveto
          35 29 4 9 25 hvcurveto
          57 -57 85 85 -48 48 rlineto
          13 26 6 30 34 vvcurveto
          endchar
        </CharString>
        <CharString name="d">
          36 89 callsubr
          endchar
        </CharString>
        <CharString name="dagger">
          -36 127 833 rmoveto
          -81 10 -91 0 vhcurveto
          213 callsubr
          0 -10 -92 -109 vvcurveto
          -393 140 393 vlineto
          109 -10 92 0 vhcurveto
          212 callgsubr
          0 10 91 81 vvcurveto
          endchar
        </CharString>
        <CharString name="daggerdbl">
          -35 126 833 rmoveto
          -81 10 -91 0 vhcurveto
          213 callsubr
          -2 -64 0 -191 2 -70 rrcurveto
          213 callsubr
          0 -10 -57 -115 vvcurveto
          140 hlineto
          115 -10 57 0 vhcurveto
          212 callgsubr
          2 70 0 192 -2 63 rrcurveto
          212 callgsubr
          0 10 91 81 vvcurveto
          endchar
        </CharString>
        <CharString name="danda">
          -104 140 hmoveto
          318 callsubr
          endchar
        </CharString>
        <CharString name="dcaron">
          64 89 callsubr
          214 291 -58 callgsubr
          endchar
        </CharString>
        <CharString name="dcroat">
          39 269 145 rmoveto
          -6 -10 -22 -6 -20 hhcurveto
          -20 -8 10 16 hvcurveto
          247 vlineto
          35 17 15 30 vhcurveto
          33 hlineto
          191 244 rmoveto
          -40 47 -152 -47 -128 -64 128 -46 -44 hlineto
          -130 -56 -72 -107 hvcurveto
          -279 vlineto
          -84 43 -52 86 60 35 32 14 11 vhcurveto
          -42 147 636 40 vlineto
          endchar
        </CharString>
        <CharString name="degree">
          14 42 674 rmoveto
          -106 51 -76 126 126 52 76 106 106 -52 76 -126 -126 -51 -76 -106 vhcurveto
          231 hmoveto
          -45 -14 -24 -40 -40 -13 24 45 45 13 24 40 40 14 -24 -45 vhcurveto
          endchar
        </CharString>
        <CharString name="dieresis">
          -76 32 689 62 callsubr
        </CharString>
        <CharString name="divide">
          72 41 396 rmoveto
          -130 414 2 callsubr
          -283 -236 rmoveto
          253 callgsubr
          343 vmoveto
          239 callsubr
        </CharString>
        <CharString name="dollar">
          13 225 424 rmoveto
          -42 23 -9 12 37 vvcurveto
          15 vlineto
          26 10 22 58 61 43 -11 -15 35 vhcurveto
          144 vlineto
          -14 6 -32 9 -46 4 rrcurveto
          51 -142 -59 vlineto
          -87 -22 -40 -56 -79 vvcurveto
          -63 vlineto
          -75 40 -45 57 -32 vhcurveto
          107 -58 rlineto
          34 -18 11 -11 -31 vvcurveto
          -15 vlineto
          -28 -24 -21 -63 -61 -57 14 15 -35 vhcurveto
          -145 vlineto
          15 -6 42 -11 54 -4 rrcurveto
          -50 142 58 vlineto
          93 21 46 56 81 vvcurveto
          62 vlineto
          67 -29 39 -53 29 vhcurveto
          endchar
        </CharString>
        <CharString name="dotaccent">
          -76 117 689 rmoveto
          -79 callgsubr
          endchar
        </CharString>
        <CharString name="dotlessi">
          106 callgsubr
          endchar
        </CharString>
        <CharString name="dottedcircle">
          234 139 517 rmoveto
          -26 18 -19 26 26 18 19 26 25 -18 19 -26 -26 -18 -19 -25 vhcurveto
          -82 -110 rmoveto
          -25 20 -19 26 24 20 19 25 25 -20 19 -24 -26 -20 -19 -25 vhcurveto
          -13 -126 rmoveto
          -25 19 -18 25 26 18 18 323 callgsubr
          52 -116 rmoveto
          -26 18 -18 26 25 19 18 26 25 -19 19 -25 -26 -18 -19 -25 vhcurveto
          101 -75 rmoveto
          -26 19 -20 26 25 19 20 26 24 -19 20 -25 -26 -19 -20 -24 vhcurveto
          127 -16 rmoveto
          -26 18 -18 26 26 19 18 26 26 -19 18 -26 -26 -18 -18 -26 vhcurveto
          121 53 rmoveto
          -26 19 -18 25 25 20 18 26 25 -20 19 -25 -25 -19 -19 -25 vhcurveto
          73 98 rmoveto
          -25 19 -19 26 24 19 19 25 26 -19 19 -24 -26 -19 -19 -26 vhcurveto
          10 134 rmoveto
          -26 18 -18 26 25 19 18 26 26 -19 18 -25 -26 -18 -18 -26 vhcurveto
          -50 118 rmoveto
          -25 19 -19 25 26 18 19 323 callgsubr
          -95 68 rmoveto
          -24 19 -20 26 25 18 20 24 26 -18 19 -25 -26 -19 -19 -26 vhcurveto
          -126 15 rmoveto
          -26 18 -18 26 26 18 18 26 26 -18 18 -26 -26 -18 -18 -26 vhcurveto
          endchar
        </CharString>
        <CharString name="doubledanda">
          16 42 hmoveto
          318 callsubr
          218 -671 rmoveto
          318 callsubr
          endchar
        </CharString>
        <CharString name="dvA">
          182 426 14 callgsubr
          -338 -85 vlineto
          -60 callsubr
          82 117 vlineto
          endchar
        </CharString>
        <CharString name="dvAA">
          406 872 14 callgsubr
          -446 -338 -79 callsubr
          84 163 callsubr
        </CharString>
        <CharString name="dvAI">
          15 403 14 callgsubr
          -152 230 rlineto
          -155 hlineto
          165 -230 rlineto
          -301 -117 81 -370 hlineto
          227 callsubr
          127 vlineto
          51 callsubr
          vlineto
          endchar
        </CharString>
        <CharString name="dvAU">
          407 785 14 callgsubr
          -41 131 rlineto
          1 callgsubr
          -92 -338 -79 callsubr
          85 -554 -61 callgsubr
        </CharString>
        <CharString name="dvAbbreviationsign">
          14 42 324 rmoveto
          -106 51 -71 126 126 52 71 106 106 -52 72 -126 -126 -51 -72 -106 vhcurveto
          124 hmoveto
          45 13 20 40 40 14 -20 -45 -45 -14 -19 -40 -40 -13 19 45 vhcurveto
          endchar
        </CharString>
        <CharString name="dvAcandra">
          182 426 333 rmoveto
          -79 callsubr
          82 117 -222 vlineto
          143 235 90 callsubr
          71 305 callsubr
        </CharString>
        <CharString name="dvAnusvara">
          -426 -187 802 60 callgsubr
          endchar
        </CharString>
        <CharString name="dvAnusvara.amI">
          -426 47 812 60 callgsubr
          endchar
        </CharString>
        <CharString name="dvAvagraha">
          -5 396 189 rmoveto
          68 -9 41 -66 47 vhcurveto
          -121 86 rlineto
          -26 19 -11 12 30 vvcurveto
          11 vlineto
          21 5 17 34 vhcurveto
          169 130 -180 hlineto
          -123 258 callsubr
          -26 vlineto
          -58 26 -46 46 -33 vhcurveto
          125 -89 rlineto
          28 -20 8 -3 callsubr
          -29 vlineto
          -20 -8 -18 -36 vhcurveto
          -6 hlineto
          -36 -8 18 20 hvcurveto
          60 -140 -55 vlineto
          -113 56 -60 123 vhcurveto
          18 hlineto
          123 54 60 113 hvcurveto
          endchar
        </CharString>
        <CharString name="dvB">
          -155 -40 14 callgsubr
          -117 488 117 vlineto
          -418 -343 rmoveto
          117 callgsubr
          143 133 63 60 118 vhcurveto
          97 vlineto
          118 -63 60 -133 -153 -49 -64 -114 vhcurveto
          275 -63 27 callsubr
          endchar
        </CharString>
        <CharString name="dvBA">
          44 163 15 callsubr
          -335 291 rmoveto
          -117 335 152 callgsubr
          296 callsubr
        </CharString>
        <CharString name="dvBH">
          11 247 139 callsubr
          271 118 rmoveto
          -131 -31 callgsubr
          35 callsubr
          137 vlineto
          endchar
        </CharString>
        <CharString name="dvBHA">
          222 248 212 32 callgsubr
        </CharString>
        <CharString name="dvBH_LA">
          654 247 139 callsubr
          193 355 rmoveto
          -117 458 -66 vlineto
          54 callsubr
          -67 -49 -21 -39 -28 hvcurveto
          -105 -31 callgsubr
          35 callsubr
          81 -134 vlineto
          194 callgsubr
          -2 callsubr
          vhcurveto
          -55 callsubr
          10 16 33 20 15 -5 0 vhcurveto
          -360 -61 callgsubr
        </CharString>
        <CharString name="dvBH_NA">
          609 662 216 -102 callsubr
          -415 -89 -54 callgsubr
          202 355 rmoveto
          -117 404 -63 -227 vlineto
          -71 -46 -20 -37 -25 hvcurveto
          -97 -31 callgsubr
          35 callsubr
          76 -101 vlineto
          -103 46 -60 123 123 44 60 103 vhcurveto
          144 callsubr
        </CharString>
        <CharString name="dvBH_R">
          36 520 453 rmoveto
          -132 60 hlineto
          -21 callsubr
          -12 2 -10 110 callsubr
          -2 7 10 -15 callgsubr
          -55 -39 vlineto
          -123 -51 -60 -93 hvcurveto
          -27 vlineto
          -93 51 -60 123 121 52 60 93 vhcurveto
          62 138 vlineto
          -11 vmoveto
          -316 -382 281 callgsubr
          59 71 49 58 38 76 8 27 rlinecurve
          -272 104 -40 callsubr
          18 -75 callgsubr
          39 hlineto
          endchar
        </CharString>
        <CharString name="dvBH_RA">
          222 466 259 rmoveto
          -262 -317 281 callgsubr
          52 62 24 29 35 62 268 callsubr
          -3 -52 -17 vvcurveto
          -5 130 562 82 117 -222 60 callsubr
          -123 -51 -60 -93 hvcurveto
          -27 vlineto
          -93 51 -60 123 121 52 60 93 vhcurveto
          62 84 vlineto
          -218 -57 -40 callsubr
          18 -75 callgsubr
          39 hlineto
          endchar
        </CharString>
        <CharString name="dvBH_R_YA">
          531 775 -104 callsubr
          -527 -276 -40 callsubr
          19 -75 callgsubr
          39 hlineto
          192 335 rmoveto
          -117 126 vlineto
          -54 callsubr
          -23 -4 -15 -11 -9 vhcurveto
          28 -24 -41 12 -63 hhcurveto
          -42 61 8 callgsubr
          -56 -39 vlineto
          -18 callsubr
          -29 -65 callsubr
          63 40 vlineto
          16 12 -1 -3 10 hvcurveto
          -60 vlineto
          -17 2 -17 4 -15 vhcurveto
          -231 -279 281 callgsubr
          59 71 31 37 27 44 17 35 rlinecurve
          -28 41 55 -15 65 23 callsubr
        </CharString>
        <CharString name="dvBH_VA">
          450 701 -95 callgsubr
          -454 -171 -54 callgsubr
          200 355 157 callgsubr
          -93 -31 callgsubr
          35 callsubr
          83 -105 vlineto
          96 callsubr
        </CharString>
        <CharString name="dvBH_YA">
          531 775 224 -15 callsubr
          192 355 8 callsubr
          35 callsubr
          40 vlineto
          16 12 -1 -3 10 hvcurveto
          -42 vlineto
          -89 callsubr
          117 vlineto
          endchar
        </CharString>
        <CharString name="dvB_BA">
          328 447 297 25 callgsubr
          -284 66 24 callsubr
          416 28 rmoveto
          -114 113 rlineto
          49 callgsubr
          215 291 rmoveto
          -834 -117 619 215 callgsubr
          -123 -64 -39 -129 hvcurveto
          -80 vlineto
          -137 114 -78 callgsubr
          148 56 41 13 24 29 vhcurveto
          -27 33 49 -10 62 hhcurveto
          29 26 3 5 17 hvcurveto
          -61 133 554 82 vlineto
          endchar
        </CharString>
        <CharString name="dvB_BHA">
          492 302 callsubr
          257 -342 -54 callgsubr
          -355 -23 5 callgsubr
          573 434 rmoveto
          -237 -78 79 vlineto
          -21 callsubr
          -20 3 -17 110 callsubr
          -3 19 13 53 callgsubr
          -18 callsubr
          -18 vlineto
          -129 108 81 callgsubr
          53 40 13 23 28 vhcurveto
          -22 28 41 -13 57 159 callsubr
          109 84 -316 -61 callgsubr
        </CharString>
        <CharString name="dvB_BH_RA">
          491 260 14 callgsubr
          -299 -117 299 hlineto
          257 -276 -40 callsubr
          18 -75 callgsubr
          39 hlineto
          -354 -42 5 callgsubr
          572 434 rmoveto
          60 callsubr
          -123 -51 -60 -93 hvcurveto
          -27 vlineto
          -7 vlineto
          -127 106 81 callgsubr
          81 50 30 52 26 vhcurveto
          -10 24 29 -5 36 hhcurveto
          121 52 60 93 hvcurveto
          137 callgsubr
        </CharString>
        <CharString name="dvB_DA">
          279 163 293 24 callsubr
          494 131 111 callgsubr
          -784 -117 557 79 callsubr
          -70 vlineto
          -127 106 -78 callgsubr
          148 54 39 12 23 27 vhcurveto
          -18 26 35 -9 47 hhcurveto
          27 22 3 3 12 hvcurveto
          53 callsubr
        </CharString>
        <CharString name="dvB_DHA">
          349 163 293 5 callgsubr
          430 434 128 callgsubr
          -563 -117 362 hlineto
          0 -11 -17 -30 -18 callgsubr
          -3 151 callgsubr
          143 57 42 15 27 29 vhcurveto
          -24 32 46 -14 61 hhcurveto
          43 31 5 5 20 hvcurveto
          -67 -61 callgsubr
        </CharString>
        <CharString name="dvB_DH_VA">
          600 851 -95 callgsubr
          -689 -90 5 callgsubr
          439 434 -36 callgsubr
          -539 -117 357 232 callgsubr
          -4 vlineto
          -129 108 81 callgsubr
          59 42 16 28 29 vhcurveto
          -25 34 51 -15 71 hhcurveto
          63 45 13 12 37 hvcurveto
          -20 26 37 -10 53 hhcurveto
          75 callgsubr
          hvcurveto
          -59 -61 callgsubr
        </CharString>
        <CharString name="dvB_JA">
          505 305 265 27 callsubr
          798 434 rmoveto
          -1001 -117 789 -63 -267 -14 callgsubr
          81 230 callgsubr
          72 hlineto
          endchar
        </CharString>
        <CharString name="dvB_JHA">
          634 878 328 rmoveto
          -298 hlineto
          225 callgsubr
          220 170 78 hlineto
          -715 -281 5 callgsubr
          937 454 rmoveto
          -1140 -117 700 -50 -80 193 callgsubr
          -10 vlineto
          -8 0 -8 1 -8 vhcurveto
          -107 -83 hlineto
          -128 107 95 callsubr
          20 16 -4 0 hvcurveto
          115 vlineto
          0 -20 4 -28 -143 -49 -64 -114 vhcurveto
          -97 277 callgsubr
          217 vlineto
          69 callgsubr
          -6 20 -8 12 vhcurveto
          79 -220 -25 callsubr
        </CharString>
        <CharString name="dvB_J_YA">
          828 1072 -104 callsubr
          -767 -289 27 callsubr
          1131 434 rmoveto
          -1334 -117 903 150 callgsubr
          -219 -14 callgsubr
          5 hlineto
          62 22 -9 -34 hvcurveto
          -58 vlineto
          -89 callsubr
          vlineto
          endchar
        </CharString>
        <CharString name="dvB_JxA">
          505 345 23 rmoveto
          -24 callsubr
          -40 242 27 callsubr
          808 434 rmoveto
          -1011 -117 789 -63 -267 -14 callgsubr
          81 -371 -25 callsubr
        </CharString>
        <CharString name="dvB_LA">
          507 163 293 24 callsubr
          810 434 rmoveto
          -1013 -117 791 206 callgsubr
          -74 vlineto
          -138 115 -78 callgsubr
          148 42 34 7 14 26 vhcurveto
          -50 30 57 -24 92 hhcurveto
          -2 callsubr
          hvcurveto
          -88 callgsubr
        </CharString>
        <CharString name="dvB_L_YA">
          802 1046 -104 callsubr
          -884 -261 5 callgsubr
          1106 434 rmoveto
          -1308 -117 877 70 callgsubr
          -20 -3 -14 -9 -10 vhcurveto
          49 -24 -47 29 -73 hhcurveto
          -58 -30 -24 -30 -20 hvcurveto
          215 callsubr
          -52 -60 -103 hvcurveto
          -66 151 callgsubr
          143 38 32 7 13 25 vhcurveto
          -49 28 53 -24 91 hhcurveto
          -2 callsubr
          hvcurveto
          -55 callsubr
          7 16 32 -47 callgsubr
          -56 vlineto
          -89 callsubr
          vlineto
          endchar
        </CharString>
        <CharString name="dvB_NA">
          437 490 216 -102 callsubr
          -327 -21 rmoveto
          112 -90 rlineto
          -15 -8 -16 -7 -27 hhcurveto
          -48 -13 23 46 hvcurveto
          122 34 rmoveto
          -110 88 rlineto
          11 10 15 6 24 hhcurveto
          53 8 -23 -46 hvcurveto
          618 364 rmoveto
          -943 -117 721 -63 -227 hlineto
          -52 -38 -11 -20 -27 hvcurveto
          20 -26 -37 11 -52 hhcurveto
          -143 -49 -64 -114 hvcurveto
          -82 vlineto
          -114 49 -64 143 51 37 11 19 27 vhcurveto
          -20 26 39 -11 52 hhcurveto
          257 callgsubr
          hvcurveto
          -33 callsubr
        </CharString>
        <CharString name="dvB_R">
          -155 163 298 rmoveto
          126 -93 rlineto
          -11 -11 -18 -6 -26 hhcurveto
          -53 -18 23 46 hvcurveto
          142 22 rmoveto
          -127 94 rlineto
          12 11 18 6 27 hhcurveto
          53 18 -23 -46 hvcurveto
          -275 -71 rmoveto
          -99 45 -55 93 -18 vhcurveto
          -158 -165 rlineto
          169 hlineto
          137 142 rlineto
          65 68 47 41 86 vvcurveto
          77 vlineto
          118 -63 60 -133 -153 -49 -64 -114 vhcurveto
          -70 343 rmoveto
          -117 491 296 callsubr
        </CharString>
        <CharString name="dvB_RA">
          45 164 297 251 callgsubr
          132 30 rmoveto
          -114 113 rlineto
          49 callgsubr
          -336 291 rmoveto
          -117 336 -59 vlineto
          179 callgsubr
          -123 -64 -39 -129 hvcurveto
          -109 207 callgsubr
          296 callsubr
        </CharString>
        <CharString name="dvB_SA">
          485 729 381 rmoveto
          -78 1 hlineto
          125 -66 callgsubr
          84 hlineto
          -566 -261 24 callsubr
          788 434 rmoveto
          -991 -117 544 hlineto
          0 10 -3 callsubr
          -123 vlineto
          80 callgsubr
          102 -140 -186 151 callgsubr
          148 39 32 7 12 26 vhcurveto
          -48 32 59 -29 89 hhcurveto
          12 callsubr
          hvcurveto
          -74 callsubr
        </CharString>
        <CharString name="dvB_SHA">
          490 302 callsubr
          -98 -261 24 callsubr
          296 230 rmoveto
          -3 12 -1 11 15 vvcurveto
          23 6 19 104 callgsubr
          -116 vlineto
          -23 -6 -15 -33 -21 -18 5 0 vhcurveto
          44 -140 -146 vlineto
          -138 115 -78 callgsubr
          148 45 36 9 16 27 vhcurveto
          -46 30 54 -30 84 hhcurveto
          12 callsubr
          hvcurveto
          -74 callgsubr
          126 vlineto
          -17 callsubr
          415 204 rmoveto
          -671 -61 callgsubr
        </CharString>
        <CharString name="dvB_TA">
          317 163 293 24 callsubr
          620 434 rmoveto
          -823 -117 601 -64 hlineto
          328 callgsubr
          -66 vlineto
          -138 115 -78 callgsubr
          148 37 30 6 11 24 vhcurveto
          -48 19 43 -24 84 hhcurveto
          170 callsubr
        </CharString>
        <CharString name="dvB_VA">
          291 542 -95 callgsubr
          -379 -90 rmoveto
          128 -107 rlineto
          -12 -11 -16 -6 -25 hhcurveto
          -58 -18 23 46 hvcurveto
          594 434 rmoveto
          -797 -117 575 -55 hlineto
          11 callsubr
          -81 151 callgsubr
          148 49 37 12 20 26 vhcurveto
          -22 26 39 -11 55 83 callgsubr
        </CharString>
        <CharString name="dvB_YA">
          376 620 -104 callsubr
          -457 -261 24 callsubr
          679 434 rmoveto
          -882 -117 451 hlineto
          -42 callgsubr
          -5 151 callgsubr
          148 76 49 25 42 28 vhcurveto
          -22 39 50 -12 58 -38 callgsubr
        </CharString>
        <CharString name="dvC">
          277 callsubr
          6 -371 rmoveto
          -4 -12 -25 -3 -19 hhcurveto
          -33 -25 -1 callgsubr
          56 -53 115 26 37 3 5 20 vhcurveto
          endchar
        </CharString>
        <CharString name="dvCA">
          63 207 315 rmoveto
          246 callsubr
          -258 -126 60 hlineto
          0 -6 -19 -30 vvcurveto
          -97 239 callgsubr
          117 -568 -117 347 -371 vlineto
          126 callgsubr
          endchar
        </CharString>
        <CharString name="dvCH">
          129 346 501 rmoveto
          102 callsubr
          359 117 -635 -117 101 hlineto
          -11 -16 -5 -20 -20 vvcurveto
          -130 vlineto
          47 callsubr
          110 -72 44 -102 vhcurveto
          endchar
        </CharString>
        <CharString name="dvCHA">
          129 40 368 rmoveto
          47 callsubr
          67 -14 44 -40 21 vhcurveto
          75 133 117 -634 -117 91 82 callgsubr
          endchar
        </CharString>
        <CharString name="dvCH_RA">
          129 176 171 rmoveto
          -43 callsubr
          -140 vlineto
          -40 -13 -20 -89 -89 -12 9 37 vhcurveto
          418 386 rmoveto
          117 -634 -117 91 vlineto
          149 callsubr
          -23 vlineto
          -79 33 -48 79 -22 vhcurveto
          -50 -110 150 callsubr
          36 96 rlineto
          1 hlineto
          2 234 callsubr
          67 -14 44 -40 21 vhcurveto
          75 vlineto
          endchar
        </CharString>
        <CharString name="dvCH_R_YA">
          656 908 56 callsubr
          1 vlineto
          76 36 38 77 hvcurveto
          37 193 callsubr
          -206 52 447 hlineto
          -732 -383 rmoveto
          -43 callsubr
          -140 vlineto
          -40 -13 -20 -89 -89 -12 9 37 vhcurveto
          954 503 rmoveto
          -1170 -117 91 hlineto
          149 callsubr
          -23 vlineto
          -79 33 -48 79 -22 vhcurveto
          -50 -110 150 callsubr
          36 96 rlineto
          3 234 callsubr
          10 0 9 -1 9 vhcurveto
          158 209 callsubr
          -15 vlineto
          -22 -7 -8 -27 vhcurveto
          -79 -90 -4 callsubr
        </CharString>
        <CharString name="dvCH_YA">
          656 900 56 callsubr
          4 vlineto
          76 36 38 77 hvcurveto
          26 193 callsubr
          -249 hlineto
          5 -19 -22 2 -23 hhcurveto
          102 callsubr
          664 hlineto
          87 callsubr
          -1162 -117 101 hlineto
          -11 -16 -5 -20 -20 vvcurveto
          -130 vlineto
          47 callsubr
          7 0 7 -1 6 vhcurveto
          145 209 callsubr
          -4 vlineto
          -22 -7 -8 -27 vhcurveto
          -79 -93 -4 callsubr
        </CharString>
        <CharString name="dvC_CA">
          313 778 14 callgsubr
          -818 -117 597 -371 hlineto
          126 callgsubr
          91 vlineto
          246 callsubr
          -228 -120 30 hlineto
          0 -6 -25 -30 vvcurveto
          -97 vlineto
          -14 1 -13 1 -12 vhcurveto
          -3 -13 -15 -1 -16 hhcurveto
          -37 -31 13 35 hvcurveto
          91 vlineto
          184 callsubr
          27 120 -232 -126 60 hlineto
          0 -6 -19 -30 vvcurveto
          -97 vlineto
          -113 78 -53 115 59 40 11 10 25 vhcurveto
          -14 26 33 -7 41 263 callgsubr
        </CharString>
        <CharString name="dvC_CHA">
          425 676 182 rmoveto
          122 callgsubr
          3 vlineto
          -43 callsubr
          215 232 58 callsubr
          -47 33 69 -21 114 hhcurveto
          181 57 55 123 hvcurveto
          288 callsubr
        </CharString>
        <CharString name="dvC_CH_VA">
          426 625 -124 rmoveto
          -5 -18 -17 -3 -27 hhcurveto
          -45 -17 15 35 hvcurveto
          27 vlineto
          35 17 17 45 vhcurveto
          0 11 vlineto
          18 17 1 1 16 hvcurveto
          -152 172 rmoveto
          -43 callsubr
          -140 vlineto
          -40 -13 -20 -89 -89 -12 9 37 vhcurveto
          418 386 58 callsubr
          11 -16 16 -13 21 -11 rrcurveto
          -23 -16 -15 -25 -39 vvcurveto
          -33 vlineto
          -113 70 -46 113 30 23 3 5 20 vhcurveto
          -41 141 323 vlineto
          34 29 13 44 59 vvcurveto
          288 callsubr
        </CharString>
        <CharString name="dvC_MA">
          490 737 121 callsubr
          -341 rmoveto
          -94 callgsubr
          427 343 rmoveto
          -996 -117 569 -108 126 callsubr
          -86 vlineto
          -10 1 -9 1 -10 vhcurveto
          -2 -14 -14 -1 -16 hhcurveto
          -37 -31 -1 callgsubr
          78 -53 115 63 41 12 10 24 vhcurveto
          -13 26 34 -7 42 48 callgsubr
        </CharString>
        <CharString name="dvC_NA">
          471 524 216 -102 callsubr
          413 370 rmoveto
          -977 -117 755 285 callsubr
          -12 1 -12 1 -11 vhcurveto
          -2 -14 -16 -2 -16 hhcurveto
          -37 -31 -1 callgsubr
          78 -53 115 60 40 11 10 25 vhcurveto
          -14 26 33 -8 44 hhcurveto
          257 callgsubr
          hvcurveto
          -33 callsubr
        </CharString>
        <CharString name="dvC_R">
          277 callsubr
          -108 -239 rmoveto
          246 callsubr
          -258 -126 60 hlineto
          0 -6 -19 -30 vvcurveto
          -67 vlineto
          -94 39 -52 78 -15 vhcurveto
          -168 -150 295 callsubr
          141 134 rlineto
          143 vlineto
          -4 -12 -19 -5 -30 hhcurveto
          -36 -26 13 35 hvcurveto
          endchar
        </CharString>
        <CharString name="dvC_RA">
          66 -40 14 callgsubr
          -117 350 -320 vlineto
          126 callgsubr
          40 vlineto
          246 callsubr
          -248 -126 50 hlineto
          0 -6 -19 -30 vvcurveto
          -33 vlineto
          -80 26 -50 56 -22 vhcurveto
          -114 -141 281 callgsubr
          110 135 rlineto
          0 vlineto
          -125 -61 callgsubr
        </CharString>
        <CharString name="dvC_YA">
          408 652 -104 callsubr
          87 callsubr
          -914 -117 483 hlineto
          -42 callgsubr
          -31 6 -27 12 -24 vhcurveto
          -7 -24 -26 -5 -27 hhcurveto
          -37 -34 -1 callgsubr
          81 -53 127 88 49 27 26 38 vhcurveto
          -13 34 40 -7 45 -38 callgsubr
        </CharString>
        <CharString name="dvCandrabindu">
          -426 -181 980 rmoveto
          -40 14 -30 56 304 callsubr
          vhcurveto
          140 -74 90 callsubr
          71 305 callsubr
        </CharString>
        <CharString name="dvD">
          4 523 54 callgsubr
          -349 446 rmoveto
          -103 48 -53 113 27 22 3 3 12 vhcurveto
          -69 callsubr
          172 284 callgsubr
          hlineto
          -123 -58 -39 -120 hvcurveto
          endchar
        </CharString>
        <CharString name="dvDA">
          4 30 217 rmoveto
          -103 48 -53 113 27 22 3 3 12 vhcurveto
          -69 callsubr
          172 284 callgsubr
          hlineto
          -123 -58 -39 -120 hvcurveto
          endchar
        </CharString>
        <CharString name="dvDA_mvR">
          4 383 368 rmoveto
          284 callgsubr
          vlineto
          -123 -58 -39 -120 hvcurveto
          -89 vlineto
          -103 48 -53 113 17 29 3 5 17 vhcurveto
          -46 vlineto
          -107 -7 -47 -59 -101 vvcurveto
          -108 70 -60 123 35 29 2 6 36 237 callgsubr
          -5 -33 -26 -3 -36 hhcurveto
          -37 -23 7 33 33 24 7 37 33 16 -3 -5 44 hvcurveto
          360 -140 -57 vlineto
          0 -19 -7 -22 320 callsubr
          79 170 callgsubr
        </CharString>
        <CharString name="dvDD">
          4 172 -58 117 callsubr
          -338 729 rmoveto
          -117 278 -50 -34 vlineto
          -113 -56 -39 -103 hvcurveto
          9 callgsubr
          174 244 callgsubr
          hlineto
          endchar
        </CharString>
        <CharString name="dvDDA">
          3 378 246 callgsubr
          -509 -117 278 -50 -34 vlineto
          -113 -56 -39 -103 hvcurveto
          -36 callsubr
        </CharString>
        <CharString name="dvDDH">
          9 426 54 callgsubr
          -73 728 rmoveto
          256 callsubr
          -113 58 -59 130 130 54 275 callsubr
          -50 callsubr
          174 274 callsubr
          -514 -117 285 -55 hlineto
          endchar
        </CharString>
        <CharString name="dvDDHA">
          9 209 499 rmoveto
          256 callsubr
          -113 58 -59 130 130 54 275 callsubr
          -50 callsubr
          174 274 callsubr
          -514 -117 285 -55 hlineto
          endchar
        </CharString>
        <CharString name="dvDDH_DDHA">
          46 391 382 rmoveto
          172 121 117 -552 -117 293 -55 -34 vlineto
          -126 -51 -44 -105 hvcurveto
          -153 vlineto
          -45 12 -36 23 -26 vhcurveto
          -26 -25 -12 -35 -47 vvcurveto
          -133 vlineto
          -108 68 -54 130 130 64 49 108 vhcurveto
          158 callgsubr
          -6 -28 vhcurveto
          -1 287 callsubr
          43 10 14 43 vhcurveto
          10 hlineto
          130 64 49 108 hvcurveto
          158 callgsubr
          -6 -28 vhcurveto
          -1 vlineto
          -27 -8 -19 -52 -52 -8 21 27 vhcurveto
          144 vlineto
          28 8 9 31 vhcurveto
          endchar
        </CharString>
        <CharString name="dvDDH_R">
          9 175 -159 117 callsubr
          -341 830 rmoveto
          -117 285 282 callgsubr
          -69 21 -49 47 -27 vhcurveto
          -58 -126 150 callsubr
          37 99 rlineto
          1 hlineto
          37 -99 150 callsubr
          -58 128 rlineto
          41 26 18 46 66 vvcurveto
          -50 callsubr
          174 274 callsubr
          hlineto
          endchar
        </CharString>
        <CharString name="dvDDH_RA">
          9 383 372 rmoveto
          274 callsubr
          -514 -117 285 282 callgsubr
          -68 21 -48 45 -28 vhcurveto
          -56 -122 150 callsubr
          35 94 rlineto
          0 5 vlineto
          35 -94 255 callsubr
          18 45 65 vvcurveto
          -50 callsubr
          endchar
        </CharString>
        <CharString name="dvDDH_YA">
          541 785 56 callsubr
          4 vlineto
          76 36 38 77 hvcurveto
          31 193 callsubr
          -161 55 402 hlineto
          87 callsubr
          -1047 -117 285 -55 -36 hlineto
          256 callsubr
          -113 58 -59 130 130 54 275 callsubr
          -50 callsubr
          340 209 callsubr
          -9 vlineto
          -22 -7 -8 -27 vhcurveto
          -79 -93 -4 callsubr
        </CharString>
        <CharString name="dvDDHxA">
          9 209 499 rmoveto
          256 callsubr
          -113 58 -59 130 130 54 275 callsubr
          15 vlineto
          113 -50 39 -98 -29 -19 -8 0 vhcurveto
          -123 vlineto
          0 11 8 18 20 13 -6 -28 vhcurveto
          -2 vlineto
          -31 -8 -16 -42 -42 -8 18 31 vhcurveto
          163 vlineto
          23 4 14 33 vhcurveto
          174 274 callsubr
          -514 -117 285 -55 hlineto
          -95 -623 rmoveto
          239 callsubr
        </CharString>
        <CharString name="dvDD_DDA">
          29 220 callsubr
          -45 -81 hvcurveto
          -12 vlineto
          -110 70 -18 112 vhcurveto
          20 hlineto
          31 10 -10 -18 262 callsubr
          14 -3 16 -4 18 -2 rrcurveto
          -6 -16 -2 -16 -15 vvcurveto
          -110 87 -18 82 vhcurveto
          13 hlineto
          32 8 -11 -19 1 hvcurveto
          -6 vlineto
          -25 -23 -7 -54 -56 -73 11 9 -40 vhcurveto
          -115 vlineto
          -11 47 63 -9 59 hhcurveto
          151 71 44 99 hvcurveto
          208 callsubr
          -24 -8 6 20 19 9 8 23 hvcurveto
          0 vlineto
          138 4 65 44 95 vvcurveto
          208 callsubr
          -23 -8 6 18 -1 hvcurveto
          4 vlineto
          19 9 6 23 vhcurveto
          endchar
        </CharString>
        <CharString name="dvDD_DDHA">
          27 220 callsubr
          -43 -93 hvcurveto
          -6 vlineto
          -105 72 -19 110 vhcurveto
          20 hlineto
          31 10 -11 -17 262 callsubr
          10 -2 11 -3 12 -2 rrcurveto
          -16 -26 -8 -33 -38 vvcurveto
          -103 vlineto
          -108 68 -54 130 130 64 49 108 vhcurveto
          158 callgsubr
          -8 -23 vhcurveto
          -4 287 callsubr
          38 7 16 25 3 vhcurveto
          148 74 42 101 hvcurveto
          208 callsubr
          -24 -8 6 20 19 9 8 23 hvcurveto
          endchar
        </CharString>
        <CharString name="dvDD_R">
          -1 160 -159 117 callsubr
          -334 830 rmoveto
          61 callgsubr
          14 -3 14 -3 14 -2 -49 -108 rcurveline
          278 callsubr
          -59 129 rlineto
          -7 hlineto
          47 27 22 45 65 vvcurveto
          169 callgsubr
        </CharString>
        <CharString name="dvDD_RA">
          4 378 246 callgsubr
          -509 61 callgsubr
          13 -3 12 -2 13 -3 -45 -97 rcurveline
          143 hlineto
          33 89 rlineto
          9 hlineto
          33 -89 255 callsubr
          20 43 61 vvcurveto
          -45 callsubr
          endchar
        </CharString>
        <CharString name="dvDD_VA">
          38 270 -60 rmoveto
          -5 -9 -17 -4 -16 hhcurveto
          -35 -7 15 25 hvcurveto
          27 vlineto
          37 5 12 28 3 vhcurveto
          18 17 1 1 16 hvcurveto
          137 343 rmoveto
          159 95 117 -542 -117 301 -55 -25 vlineto
          -128 -58 -45 -81 hvcurveto
          -12 vlineto
          -110 70 -18 112 vhcurveto
          20 hlineto
          32 8 -12 -18 1 hvcurveto
          -4 vlineto
          -32 -34 -2 -43 -56 -89 11 9 -40 vhcurveto
          -115 vlineto
          10 -2 12 -3 13 -2 rrcurveto
          -8 -15 -5 -18 -22 vvcurveto
          -33 vlineto
          -103 43 -46 113 23 19 4 7 18 vhcurveto
          -54 131 314 vlineto
          26 23 12 32 41 vvcurveto
          208 callsubr
          -23 -9 6 17 hvcurveto
          3 vlineto
          19 9 8 23 vhcurveto
          endchar
        </CharString>
        <CharString name="dvDD_YA">
          533 777 56 callsubr
          4 vlineto
          76 36 38 77 hvcurveto
          43 vlineto
          103 -54 33 -121 vhcurveto
          -158 50 399 hlineto
          87 callsubr
          -1039 -117 278 -50 -34 193 callgsubr
          9 callgsubr
          337 209 callsubr
          -21 vlineto
          -22 -7 -8 -27 vhcurveto
          -79 -93 -4 callsubr
        </CharString>
        <CharString name="dvDDxA">
          4 225 -49 rmoveto
          -59 -16 40 callsubr
          -17 33 -58 hvcurveto
          153 433 194 callsubr
          -509 -117 278 -50 -34 vlineto
          -113 -56 -39 -103 hvcurveto
          -36 callsubr
        </CharString>
        <CharString name="dvDH">
          -144 343 192 rmoveto
          -8 -27 -41 321 callgsubr
          -30 -81 callsubr
          10 13 0 vhcurveto
          38 117 -269 -117 87 232 callgsubr
          -51 vlineto
          -92 65 -68 131 37 43 3 7 32 vhcurveto
          endchar
        </CharString>
        <CharString name="dvDHA">
          79 52 554 rmoveto
          136 callsubr
          -222 -479 vlineto
          -6 -24 -20 -4 -30 hhcurveto
          -45 -29 -81 callsubr
          16 13 0 vhcurveto
          56 117 -293 -117 hlineto
          endchar
        </CharString>
        <CharString name="dvDH_MA">
          517 764 121 callsubr
          -341 rmoveto
          -94 callgsubr
          -225 343 rmoveto
          -117 225 -108 -39 vlineto
          -18 callsubr
          -86 vlineto
          -5 0 -5 -5 vvcurveto
          -7 -27 -23 callgsubr
          -269 -26 callgsubr
          67 48 15 12 37 vhcurveto
          -19 28 39 -10 51 159 callsubr
          120 74 -328 219 callgsubr
          296 callsubr
        </CharString>
        <CharString name="dvDH_NA">
          490 543 216 -102 callsubr
          -235 370 rmoveto
          -117 426 -63 -227 vlineto
          -42 callsubr
          -113 vlineto
          -8 0 -8 1 -8 151 callsubr
          38 117 -269 -26 callgsubr
          63 45 13 12 36 vhcurveto
          -20 27 38 -10 51 hhcurveto
          257 callgsubr
          hvcurveto
          144 callsubr
        </CharString>
        <CharString name="dvDH_N_YA">
          826 1070 -104 callsubr
          -521 -338 -102 callsubr
          743 370 rmoveto
          -968 -117 537 235 callgsubr
          -179 hlineto
          -42 callsubr
          -113 vlineto
          -8 0 -7 1 -7 vhcurveto
          -7 -28 -23 callgsubr
          -269 -26 callgsubr
          65 46 14 12 38 vhcurveto
          -20 26 39 -11 52 hhcurveto
          257 callgsubr
          hvcurveto
          -64 callgsubr
          32 hlineto
          36 13 -17 -32 hvcurveto
          -43 vlineto
          -89 callsubr
          vlineto
          endchar
        </CharString>
        <CharString name="dvDH_R">
          -144 175 280 130 callgsubr
          20 272 callgsubr
          58 117 -289 90 callgsubr
        </CharString>
        <CharString name="dvDH_RA">
          83 327 671 129 callgsubr
          -299 -117 91 hlineto
          0 -6 -16 -31 vvcurveto
          -32 vlineto
          -46 13 -30 25 -19 vhcurveto
          -29 -17 -15 -31 -54 153 callgsubr
        </CharString>
        <CharString name="dvDH_VA">
          330 581 -95 callgsubr
          -250 288 -36 callgsubr
          -269 -26 callgsubr
          63 45 13 12 37 vhcurveto
          -20 26 37 -10 53 hhcurveto
          75 callgsubr
          hvcurveto
          -59 -61 callgsubr
        </CharString>
        <CharString name="dvDH_YA">
          415 659 -104 callsubr
          -328 117 rmoveto
          -117 119 vlineto
          -42 callgsubr
          -27 5 -24 9 -22 vhcurveto
          -9 -35 -36 -6 -32 hhcurveto
          -53 -27 -81 callsubr
          10 13 0 vhcurveto
          38 117 -269 -117 87 hlineto
          100 callgsubr
        </CharString>
        <CharString name="dvD_BA">
          46 290 30 rmoveto
          -99 80 rlineto
          2 6 8 1 9 hhcurveto
          15 37 0 12 24 hvcurveto
          -124 -84 rmoveto
          107 -87 rlineto
          -6 -9 -14 -4 -22 hhcurveto
          -57 -5 25 35 hvcurveto
          255 364 rmoveto
          186 91 117 -552 276 callsubr
          -89 283 callgsubr
          -59 vlineto
          -108 50 -56 143 143 56 61 109 1 vhcurveto
          303 -138 -82 vlineto
          -4 -16 -18 -3 -22 hhcurveto
          -45 -11 19 29 hvcurveto
          59 vlineto
          29 11 18 45 vhcurveto
          endchar
        </CharString>
        <CharString name="dvD_BHA">
          162 172 -130 rmoveto
          -9 13 -3 11 18 14 23 16 rcurveline
          18 -26 9 -13 3 -11 -19 -13 rlinecurve
          -19 -14 -10 7 -9 13 rrcurveto
          367 501 111 callgsubr
          -668 -117 441 213 callgsubr
          -74 25 -48 55 -21 vhcurveto
          -36 -26 -29 39 -42 59 -54 14 -70 -52 rlinecurve
          -68 -49 -6 -56 41 -58 15 -23 rcurveline
          80 58 -15 19 -9 13 -4 10 19 14 rlinecurve
          18 13 8 -8 10 -12 27 -38 rcurveline
          -22 -16 -70 -50 -5 -55 38 -52 rlinecurve
          6 -9 38 -53 53 -14 70 51 rlinecurve
          70 49 4 55 -38 53 -20 28 rcurveline
          123 87 4 1 3 0 3 1 rlinecurve
          53 callsubr
        </CharString>
        <CharString name="dvD_B_RA">
          40 290 67 rmoveto
          -98 74 rlineto
          1 6 8 1 8 hhcurveto
          15 37 0 12 24 hvcurveto
          -124 -80 rmoveto
          106 -81 rlineto
          -7 -9 -14 -3 -21 hhcurveto
          -57 -5 25 35 hvcurveto
          255 324 rmoveto
          186 85 117 -546 276 callsubr
          -59 283 callgsubr
          -49 vlineto
          -83 29 -43 69 -16 vhcurveto
          -97 -119 rlineto
          153 hlineto
          100 123 rlineto
          1 -77 138 484 -138 -48 hlineto
          -6 -14 -19 -5 -23 hhcurveto
          -45 -11 19 29 hvcurveto
          29 vlineto
          29 11 18 45 vhcurveto
          endchar
        </CharString>
        <CharString name="dvD_DA">
          6 388 402 rmoveto
          152 84 117 -512 308 callsubr
          -45 -52 vlineto
          -113 -48 -39 -100 hvcurveto
          -10 vlineto
          -44 13 -29 25 -17 vhcurveto
          -25 -18 -13 -29 -44 vvcurveto
          -49 vlineto
          -93 48 -53 113 34 27 5 0 vhcurveto
          -56 140 228 -140 -59 vlineto
          0 -19 -5 -22 320 callsubr
          39 72 callsubr
          113 117 -113 hlineto
          -35 -6 13 23 hvcurveto
          2 vlineto
          23 201 callgsubr
          endchar
        </CharString>
        <CharString name="dvD_DHA">
          195 583 368 rmoveto
          186 78 117 -701 -117 483 213 callgsubr
          -66 20 -46 44 -24 vhcurveto
          -65 -1 -14 -4 -62 hhcurveto
          -40 -33 4 35 hvcurveto
          10 vlineto
          19 3 14 30 vhcurveto
          25 109 -20 hlineto
          -30 -3 14 20 hvcurveto
          11 vlineto
          20 3 14 30 vhcurveto
          19 108 -19 68 callgsubr
        </CharString>
        <CharString name="dvD_GA">
          22 395 368 rmoveto
          186 93 117 -528 -117 295 213 callgsubr
          -56 14 -42 32 -26 vhcurveto
          -48 vlineto
          -32 -8 -11 -35 vhcurveto
          -17 -119 hlineto
          0 20 -3 22 112 36 38 113 vhcurveto
          31 vlineto
          15 1 19 4 12 4 rrcurveto
          -231 140 438 -140 -89 vlineto
          0 -17 -5 -24 320 callsubr
          87 callgsubr
          endchar
        </CharString>
        <CharString name="dvD_GHA">
          200 144 61 rmoveto
          19 3 14 30 vhcurveto
          25 109 -20 hlineto
          -30 -3 14 20 hvcurveto
          11 vlineto
          20 3 14 30 vhcurveto
          48 -65 hlineto
          -66 20 -46 44 -24 vhcurveto
          -65 -1 -14 -4 -62 hhcurveto
          -40 -33 4 35 hvcurveto
          439 317 rmoveto
          186 83 117 -706 -117 483 -59 -32 vlineto
          -102 -58 -27 -78 -16 hvcurveto
          -53 68 callgsubr
        </CharString>
        <CharString name="dvD_G_RA">
          11 390 368 111 callgsubr
          -517 -117 290 79 callsubr
          -69 vlineto
          -49 11 -37 23 -26 vhcurveto
          -46 vlineto
          -32 -8 -11 -35 vhcurveto
          -17 -118 hlineto
          0 16 -4 26 112 36 38 113 vhcurveto
          16 vlineto
          15 25 3 8 18 hvcurveto
          -98 vlineto
          -216 -263 rlineto
          142 hlineto
          7 9 34 43 29 38 18 39 rlinecurve
          2 hlineto
          -5 -18 0 -19 -19 vvcurveto
          -33 129 497 -140 -59 vlineto
          0 -18 -5 -23 320 callsubr
          59 170 callgsubr
        </CharString>
        <CharString name="dvD_MA">
          261 508 86 rmoveto
          -103 206 -133 -63 hlineto
          0 -17 -10 -34 -45 -6 19 24 vhcurveto
          64 vlineto
          24 6 18 45 vhcurveto
          182 186 105 hlineto
          219 117 rmoveto
          -767 -117 303 -59 -42 hlineto
          -133 -58 -44 -120 hvcurveto
          -69 vlineto
          -103 53 -61 118 15 43 3 9 13 vhcurveto
          -206 132 64 104 -145 137 731 82 vlineto
          endchar
        </CharString>
        <CharString name="dvD_NA">
          5 383 368 rmoveto
          284 callgsubr
          vlineto
          -123 -58 -39 -120 hvcurveto
          -109 vlineto
          -71 23 -38 51 -16 vhcurveto
          -27 -23 -85 -71 -10 -77 51 -53 rlinecurve
          34 -36 43 1 0 vvcurveto
          86 77 rlineto
          0 -26 5 -15 16 vhcurveto
          -17 18 -7 25 32 29 89 80 rcurveline
          -93 140 278 -140 -78 vlineto
          -3 -10 -12 -3 -17 hhcurveto
          -35 -8 14 24 hvcurveto
          99 170 callgsubr
        </CharString>
        <CharString name="dvD_R">
          12 400 hmoveto
          278 -140 -54 vlineto
          -25 -6 -13 -35 320 callsubr
          107 72 callsubr
          172 186 87 117 -518 -117 291 -59 -32 hlineto
          -123 -58 -39 -120 hvcurveto
          -117 vlineto
          -69 22 -38 49 -17 vhcurveto
          -88 -158 rlineto
          150 hlineto
          89 160 rlineto
          0 vlineto
          -97 vlineto
          147 -63 rmoveto
          -126 hlineto
          214 callsubr
          endchar
        </CharString>
        <CharString name="dvD_RA">
          12 391 368 111 callgsubr
          -518 -117 291 79 callsubr
          -109 33 callsubr
        </CharString>
        <CharString name="dvD_VA">
          10 258 197 callgsubr
          131 253 111 callgsubr
          -516 -117 289 79 callsubr
          105 callgsubr
        </CharString>
        <CharString name="dvD_YA">
          79 545 14 callgsubr
          -585 -117 153 -54 hlineto
          -54 -9 -29 -24 -74 vvcurveto
          -18 vlineto
          -39 15 -30 28 -21 vhcurveto
          -25 -23 -13 -33 -40 vvcurveto
          -20 vlineto
          -92 47 -63 141 42 42 5 7 26 vhcurveto
          -26 130 554 82 vlineto
          -222 hmoveto
          -405 vlineto
          -7 -19 -32 -3 -25 hhcurveto
          -55 -17 8 41 hvcurveto
          4 vlineto
          23 11 20 33 vhcurveto
          34 109 -44 -9 callsubr
          5 160 callsubr
          127 hlineto
          endchar
        </CharString>
        <CharString name="dvE">
          15 380 142 rmoveto
          51 callsubr
          -521 -117 81 -370 vlineto
          227 callsubr
          endchar
        </CharString>
        <CharString name="dvEcandra">
          15 294 901 90 callsubr
          72 275 callsubr
          5 vlineto
          -54 -759 rmoveto
          51 callsubr
          -521 -117 81 -370 vlineto
          227 callsubr
          endchar
        </CharString>
        <CharString name="dvEight">
          18 callgsubr
        </CharString>
        <CharString name="dvEyelash">
          -151 -40 554 rmoveto
          498 117 -498 hlineto
          498 -319 rmoveto
          -219 hlineto
          -50 191 callsubr
          218 hlineto
          endchar
        </CharString>
        <CharString name="dvEyelash_HA">
          240 611 388 269 callsubr
          -746 -117 511 -46 -47 vlineto
          -112 -56 -35 -94 -1 hvcurveto
          -30 hlineto
          -51 191 callsubr
          58 hlineto
          -18 -19 -9 -26 -38 vvcurveto
          -24 vlineto
          -101 61 -57 135 67 55 6 11 47 248 callgsubr
          -40 -4 -71 hhcurveto
          -46 -20 13 33 hvcurveto
          20 -31 callsubr
          endchar
        </CharString>
        <CharString name="dvEyelash_YA">
          315 559 312 callsubr
          24 326 callsubr
          94 214 callgsubr
          -599 117 rmoveto
          -117 390 vlineto
          0 7 -3 callsubr
          -65 vlineto
          78 callgsubr
          -43 hlineto
          -51 191 callsubr
          19 -5 hlineto
          -117 93 -50 -71 callsubr
          117 vlineto
          endchar
        </CharString>
        <CharString name="dvFive">
          75 callsubr
        </CharString>
        <CharString name="dvFour">
          139 callgsubr
        </CharString>
        <CharString name="dvG">
          -167 234 554 325 callgsubr
          -207 hlineto
          -91 callsubr
          endchar
        </CharString>
        <CharString name="dvGA">
          68 533 14 callgsubr
          -573 -117 134 -207 hlineto
          -91 callsubr
          219 205 callgsubr
        </CharString>
        <CharString name="dvGH">
          -144 333 192 rmoveto
          -8 -27 -34 -2 -25 hhcurveto
          -45 -27 -81 callsubr
          10 13 0 vhcurveto
          131 117 -362 -19 callsubr
          131 37 37 3 7 32 vhcurveto
          endchar
        </CharString>
        <CharString name="dvGHA">
          79 544 14 callgsubr
          -584 -19 callsubr
          131 37 27 3 7 32 vhcurveto
          -67 307 callsubr
          -221 hmoveto
          -362 vlineto
          -8 -27 -24 -2 -25 hhcurveto
          -45 -27 -81 callsubr
          10 13 0 vhcurveto
          endchar
        </CharString>
        <CharString name="dvGH_MA">
          511 758 109 callgsubr
          -123 -50 -59 -93 hvcurveto
          -86 vlineto
          -6 0 -5 1 -6 151 callsubr
          359 134 callgsubr
          427 343 rmoveto
          -1017 -26 callgsubr
          65 46 14 12 37 vhcurveto
          -18 28 38 -10 50 48 callgsubr
        </CharString>
        <CharString name="dvGH_NA">
          490 734 491 rmoveto
          297 callgsubr
          -8 0 -8 1 -8 151 callsubr
          543 hlineto
          -191 -338 -102 callsubr
          413 370 rmoveto
          -996 -26 callgsubr
          63 45 13 12 36 vhcurveto
          -20 27 38 -10 51 hhcurveto
          257 callgsubr
          hvcurveto
          -33 callsubr
        </CharString>
        <CharString name="dvGH_R">
          -144 175 280 130 callgsubr
          20 272 callgsubr
          131 117 -362 90 callgsubr
        </CharString>
        <CharString name="dvGH_RA">
          83 179 273 130 callgsubr
          27 272 callgsubr
          132 -342 hlineto
          -8 -27 -24 290 callgsubr
          -219 416 rmoveto
          -117 91 vlineto
          0 -6 -16 -31 vvcurveto
          -32 -44 callgsubr
          -16 vlineto
          -71 36 -57 77 -22 vhcurveto
          -139 -162 295 callsubr
          141 162 rlineto
          0 vlineto
          -112 -61 callgsubr
        </CharString>
        <CharString name="dvGH_YA">
          409 653 -104 callsubr
          -478 -291 rmoveto
          -67 callsubr
          10 13 0 vhcurveto
          253 hlineto
          -42 callgsubr
          -28 5 -24 10 -22 vhcurveto
          -9 -33 -35 -5 -30 hhcurveto
          -53 -27 12 41 hvcurveto
          700 436 rmoveto
          -915 -26 callgsubr
          81 84 24 24 44 vhcurveto
          -13 33 38 -6 43 -38 callgsubr
        </CharString>
        <CharString name="dvG_BA">
          310 429 15 callsubr
          215 291 rmoveto
          -816 -117 134 -207 hlineto
          -91 callsubr
          219 327 152 callgsubr
          vlineto
          endchar
        </CharString>
        <CharString name="dvG_BHA">
          487 234 554 rmoveto
          28 117 -302 -117 134 -207 hlineto
          -91 callsubr
          279 -123 32 callgsubr
        </CharString>
        <CharString name="dvG_BH_YA">
          780 -40 554 rmoveto
          134 -207 hlineto
          -91 callsubr
          219 21 117 -295 vlineto
          1064 -447 -15 callsubr
          192 355 rmoveto
          -117 126 vlineto
          -54 callsubr
          -37 -12 -17 -34 -6 vhcurveto
          25 -24 -40 10 -59 hhcurveto
          -16 20 callsubr
          35 callsubr
          14 vlineto
          44 20 -9 -33 hvcurveto
          -4 vlineto
          -89 callsubr
          117 vlineto
          endchar
        </CharString>
        <CharString name="dvG_DA">
          280 659 368 111 callgsubr
          -786 -117 134 -207 vlineto
          -91 callsubr
          219 285 213 callgsubr
          -103 48 -53 113 27 22 3 3 12 vhcurveto
          53 callsubr
        </CharString>
        <CharString name="dvG_DHA">
          350 594 671 128 callgsubr
          -564 -117 134 -207 hlineto
          -91 callsubr
          219 89 vlineto
          136 callsubr
          vlineto
          endchar
        </CharString>
        <CharString name="dvG_DH_VA">
          601 852 -95 callgsubr
          -250 288 -36 callgsubr
          -540 97 callgsubr
          151 63 45 13 12 37 vhcurveto
          -20 26 37 -10 53 hhcurveto
          75 callgsubr
          hvcurveto
          -59 -61 callgsubr
        </CharString>
        <CharString name="dvG_DH_YA">
          686 930 -104 callsubr
          -328 117 rmoveto
          -117 119 vlineto
          -42 callgsubr
          -27 5 -24 9 -22 vhcurveto
          -9 -35 -36 -6 -32 hhcurveto
          -53 -27 -81 callsubr
          10 13 0 vhcurveto
          38 117 -540 -117 134 -207 hlineto
          -91 callsubr
          219 84 vlineto
          100 callgsubr
        </CharString>
        <CharString name="dvG_GA">
          326 791 14 callgsubr
          -831 -117 134 -207 hlineto
          -91 callsubr
          219 118 -207 vlineto
          -91 callsubr
          219 205 callgsubr
        </CharString>
        <CharString name="dvG_GHA">
          350 594 192 rmoveto
          -8 -27 -24 -2 -25 hhcurveto
          -45 -27 -81 callsubr
          10 13 0 vhcurveto
          132 hlineto
          221 117 rmoveto
          -855 97 callgsubr
          131 37 27 3 7 32 vhcurveto
          -67 305 callgsubr
        </CharString>
        <CharString name="dvG_JA">
          408 873 14 callgsubr
          -913 -117 134 -207 hlineto
          -91 callsubr
          219 418 -63 -322 -129 99 -14 callsubr
        </CharString>
        <CharString name="dvG_LA">
          488 954 14 callgsubr
          -994 -117 134 -207 hlineto
          -91 callsubr
          219 498 -66 vlineto
          0 -21 5 -27 -58 -25 -24 -30 -20 vhcurveto
          24 -12 -33 31 -66 hhcurveto
          -113 -61 -60 -103 hvcurveto
          3 callsubr
        </CharString>
        <CharString name="dvG_MA">
          454 701 121 callsubr
          -341 rmoveto
          -94 callgsubr
          427 343 rmoveto
          -960 -117 134 -207 hlineto
          -91 callsubr
          219 259 201 callsubr
          74 -328 137 554 82 vlineto
          endchar
        </CharString>
        <CharString name="dvG_NA">
          448 501 216 -102 callsubr
          413 370 rmoveto
          -954 -117 134 -207 hlineto
          -91 callsubr
          219 458 -63 -227 vlineto
          -123 -46 -60 -103 hvcurveto
          -113 vlineto
          19 callsubr
        </CharString>
        <CharString name="dvG_NNA">
          508 534 267 -10 callsubr
          440 117 rmoveto
          -1014 -117 134 -207 hlineto
          -91 callsubr
          219 84 -288 118 callsubr
        </CharString>
        <CharString name="dvG_N_YA">
          771 1015 -104 callsubr
          -516 142 callgsubr
          110 vlineto
          23 5 16 31 vhcurveto
          29 hlineto
          4 -10 3 -25 -26 vvcurveto
          738 367 rmoveto
          -1277 -117 134 -207 hlineto
          -91 callsubr
          219 572 vlineto
          134 callsubr
          -123 -46 -60 -103 hvcurveto
          -113 32 callsubr
        </CharString>
        <CharString name="dvG_R">
          83 callsubr
          endchar
        </CharString>
        <CharString name="dvG_RA">
          68 534 14 callgsubr
          -574 -117 134 -176 hlineto
          -91 callsubr
          188 78 -212 vlineto
          -266 -342 281 callgsubr
          45 59 26 33 36 47 19 40 330 callsubr
          -34 -8 -63 -57 vvcurveto
          -25 132 554 82 vlineto
          endchar
        </CharString>
        <CharString name="dvG_R_YA">
          373 621 -104 callsubr
          87 callsubr
          -883 -117 134 -160 hlineto
          -91 callsubr
          172 178 vlineto
          -54 callsubr
          80 callsubr
          -63 hlineto
          -261 -333 281 callgsubr
          45 59 34 44 25 36 20 37 rlinecurve
          -58 37 74 -32 96 -38 callgsubr
        </CharString>
        <CharString name="dvG_SA">
          482 726 381 rmoveto
          -78 1 hlineto
          125 -66 callgsubr
          84 hlineto
          87 callsubr
          -988 -117 134 -207 hlineto
          -91 callsubr
          219 267 vlineto
          -105 callgsubr
          115 -261 -100 callsubr
          hlineto
          endchar
        </CharString>
        <CharString name="dvG_VA">
          282 533 -95 callgsubr
          215 288 rmoveto
          -788 -117 134 -207 hlineto
          -91 callsubr
          219 292 74 callsubr
          -135 vlineto
          -59 callsubr
        </CharString>
        <CharString name="dvG_YA">
          373 617 -104 callsubr
          87 callsubr
          -879 -117 134 -207 hlineto
          -91 callsubr
          219 174 vlineto
          -42 callgsubr
          -89 callsubr
          vlineto
          endchar
        </CharString>
        <CharString name="dvGx">
          -167 234 554 325 callgsubr
          -207 hlineto
          -91 callsubr
          -182 -301 rmoveto
          239 callsubr
        </CharString>
        <CharString name="dvGxA">
          76 127 109 rmoveto
          -59 -16 40 callsubr
          -17 33 -58 hvcurveto
          414 562 rmoveto
          -573 -117 134 -207 hlineto
          -91 callsubr
          219 205 callgsubr
        </CharString>
        <CharString name="dvGx_R">
          83 callsubr
          40 -428 rmoveto
          239 callsubr
        </CharString>
        <CharString name="dvGx_RA">
          68 262 -30 rmoveto
          -59 -16 40 callsubr
          -17 33 -58 hvcurveto
          272 701 rmoveto
          -574 -117 134 -176 hlineto
          -91 callsubr
          188 78 -212 vlineto
          -266 -342 281 callgsubr
          45 59 26 33 36 47 19 40 330 callsubr
          -34 -8 -63 -57 vvcurveto
          -25 132 554 82 vlineto
          endchar
        </CharString>
        <CharString name="dvH">
          22 521 334 rmoveto
          -315 250 callgsubr
          128 117 -561 -48 callgsubr
          304 hlineto
          endchar
        </CharString>
        <CharString name="dvHA">
          22 38 158 rmoveto
          -110 81 -55 135 58 52 9 11 39 vhcurveto
          -40 callgsubr
          187 166 95 117 -528 185 callsubr
          endchar
        </CharString>
        <CharString name="dvHA_mU">
          22 260 -7 rmoveto
          32 15 -7 -35 -36 -16 -7 -32 hvcurveto
          -60 hlineto
          -43 -12 9 46 -37 hvcurveto
          -6 8 rlineto
          -154 hlineto
          59 -76 rlineto
          -78 61 48 -27 66 hhcurveto
          103 hlineto
          104 49 43 119 122 -52 40 -101 hvcurveto
          -40 108 callsubr
          -528 185 callsubr
          -24 vlineto
          -103 62 -57 144 2 vhcurveto
          endchar
        </CharString>
        <CharString name="dvHA_mUU">
          15 436 21 rmoveto
          78 -62 -48 15 -66 hhcurveto
          -23 108 callsubr
          -521 -117 286 -46 -47 hlineto
          -113 -56 -35 -96 hvcurveto
          -18 vlineto
          1 -44 16 -27 27 -16 275 callgsubr
          -30 -48 vvcurveto
          -24 vlineto
          -60 21 -35 41 -18 vhcurveto
          -18 -19 -8 -26 -34 vvcurveto
          -102 50 -37 91 34 46 5 0 vhcurveto
          108 vlineto
          0 -41 -5 -25 -16 -15 7 25 26 12 7 16 vhcurveto
          25 hlineto
          43 12 6 -46 37 hvcurveto
          97 -123 rlineto
          154 hlineto
          endchar
        </CharString>
        <CharString name="dvHA_mvR">
          116 169 200 rmoveto
          18 6 11 23 vhcurveto
          156 hlineto
          19 5 -4 -16 -16 -5 -4 -19 hvcurveto
          -1 hlineto
          -83 -65 -27 -108 -126 91 -14 97 57 47 7 6 23 hvcurveto
          111 vlineto
          -6 -29 -35 -5 -43 hhcurveto
          -66 -14 5 22 14 7 6 13 hvcurveto
          9 hlineto
          98 47 44 91 91 -47 39 -98 hvcurveto
          -160 hlineto
          -20 -9 6 17 hvcurveto
          3 131 callsubr
          252 166 128 117 -622 -117 354 -46 -107 hlineto
          -113 -56 -35 -96 hvcurveto
          -18 vlineto
          1 -44 19 -22 19 -11 rrcurveto
          -19 -11 -19 -18 -48 vvcurveto
          -267 vlineto
          -124 91 -61 135 58 52 9 11 39 vhcurveto
          108 vlineto
          -12 -42 -38 -7 -59 hhcurveto
          -54 -52 17 64 hvcurveto
          endchar
        </CharString>
        <CharString name="dvH_LA">
          643 887 13 callgsubr
          -112 -61 -59 -101 -1 hvcurveto
          -245 250 callgsubr
          494 hlineto
          87 callsubr
          -1149 -48 callgsubr
          234 -37 hlineto
          -66 callsubr
        </CharString>
        <CharString name="dvH_MA">
          285 532 200 rmoveto
          -103 4 hlineto
          81 -47 41 -102 vhcurveto
          -73 hlineto
          -20 -9 6 26 hvcurveto
          1 vlineto
          27 9 7 20 vhcurveto
          219 161 106 hlineto
          219 117 rmoveto
          -791 -117 326 -46 -79 hlineto
          -113 -56 -30 -106 hvcurveto
          -11 vlineto
          -54 17 -24 27 -16 vhcurveto
          -28 -14 -15 -23 -48 vvcurveto
          -83 261 callgsubr
          99 vlineto
          21 11 8 23 vhcurveto
          49 hlineto
          26 8 -8 -21 hvcurveto
          -169 132 64 104 -132 137 604 82 vlineto
          endchar
        </CharString>
        <CharString name="dvH_NA">
          635 880 178 callsubr
          -121 -46 -58 -99 -2 hvcurveto
          -278 250 callgsubr
          487 hlineto
          -191 -338 -102 callsubr
          413 370 rmoveto
          -1142 -48 callgsubr
          267 -4 hlineto
          19 callsubr
        </CharString>
        <CharString name="dvH_NNA">
          698 724 267 -10 callsubr
          -518 -220 254 callgsubr
          115 -220 hlineto
          656 337 rmoveto
          -1204 -48 callgsubr
          295 hlineto
          -74 16 55 -42 103 316 callgsubr
          288 78 163 callsubr
        </CharString>
        <CharString name="dvH_RA">
          117 443 399 rmoveto
          155 140 117 -623 -117 343 -42 -97 vlineto
          -113 -56 -28 -96 hvcurveto
          -8 vlineto
          1 -44 16 -31 27 -16 275 callgsubr
          -23 -48 vvcurveto
          -53 vlineto
          -111 61 -66 185 87 95 12 13 37 248 callgsubr
          -70 -12 -91 hhcurveto
          -96 -20 22 43 hvcurveto
          49 -75 callgsubr
          54 hlineto
          -66 -95 115 -12 68 99 rlineto
          5 -6 2 -8 -13 vvcurveto
          -38 123 51 vlineto
          91 -37 34 -102 vhcurveto
          -173 hlineto
          -20 -9 6 17 hvcurveto
          7 131 callsubr
          endchar
        </CharString>
        <CharString name="dvH_VA">
          437 688 -95 callgsubr
          -482 -49 254 callgsubr
          288 -55 hlineto
          11 callsubr
          -12 vlineto
          452 337 rmoveto
          -943 -48 callgsubr
          234 -8 hlineto
          -59 callsubr
        </CharString>
        <CharString name="dvH_YA">
          290 534 142 rmoveto
          -5 -14 -39 -5 -27 hhcurveto
          -13 hlineto
          10 15 5 21 31 vvcurveto
          1 vlineto
          81 -56 40 -122 vhcurveto
          -71 hlineto
          -20 -9 7 27 hvcurveto
          2 vlineto
          27 9 9 20 vhcurveto
          227 161 100 hlineto
          87 callsubr
          -796 -117 334 -46 -87 hlineto
          -113 -56 -35 -106 hvcurveto
          -4 vlineto
          -56 19 -28 25 -15 vhcurveto
          -28 -19 -15 -25 -48 vvcurveto
          -73 261 callgsubr
          89 -75 callgsubr
          53 hlineto
          45 9 -15 -26 hvcurveto
          -3 vlineto
          -37 -25 -3 -36 vhcurveto
          -124 178 vlineto
          34 42 5 5 16 hvcurveto
          -62 140 598 82 vlineto
          endchar
        </CharString>
        <CharString name="dvI">
          -7 172 169 rmoveto
          -138 -251 138 83 hlineto
          0 30 -7 34 123 41 55 103 vhcurveto
          27 318 callgsubr
          -26 hlineto
          -22 -7 9 18 hvcurveto
          2 vlineto
          19 6 8 23 vhcurveto
          179 170 84 117 -498 -117 274 -50 -39 hlineto
          -113 -56 -39 -103 hvcurveto
          -10 317 callgsubr
          26 hlineto
          33 6 -17 -20 hvcurveto
          -17 vlineto
          -25 -9 -14 -35 -21 -23 7 0 vhcurveto
          endchar
        </CharString>
        <CharString name="dvII">
          -7 374 384 rmoveto
          170 84 117 -88 vlineto
          -13 26 -7 26 19 vvcurveto
          32 19 5 27 15 15 -3 0 108 callgsubr
          0 -22 6 -58 -66 -71 -25 -107 -41 14 -36 11 -26 49 callsubr
          endchar
        </CharString>
        <CharString name="dvII_Anusvara">
          -4 426 960 rmoveto
          0 -22 6 -45 -89 -74 -30 -117 -53 17 -59 21 -36 49 callsubr
          179 170 84 117 -88 hlineto
          -23 36 -10 49 31 vvcurveto
          42 25 20 37 11 16 -2 0 vhcurveto
          28 -32 76 callgsubr
        </CharString>
        <CharString name="dvJ">
          -61 415 14 callgsubr
          -455 -117 455 hlineto
          -63 vmoveto
          -325 -129 99 hlineto
          0 11 -13 -101 callgsubr
          84 hlineto
          endchar
        </CharString>
        <CharString name="dvJA">
          168 340 324 82 callsubr
        </CharString>
        <CharString name="dvJH">
          16 246 -5 rmoveto
          95 63 34 115 hvcurveto
          25 vlineto
          19 -4 17 -8 15 vhcurveto
          95 108 -268 114 callsubr
          99 117 -527 -16 callgsubr
          vhcurveto
          endchar
        </CharString>
        <CharString name="dvJHA">
          222 220 211 rmoveto
          69 callgsubr
          -5 20 -8 12 vhcurveto
          78 -220 135 callgsubr
          117 -727 308 callsubr
          -50 -39 hlineto
          -113 -56 -39 -103 hvcurveto
          -10 317 callgsubr
          117 vmoveto
          225 callgsubr
          179 170 78 -226 hlineto
          endchar
        </CharString>
        <CharString name="dvJH_MA">
          633 880 109 callgsubr
          -107 -52 -45 -73 -11 hvcurveto
          -244 114 callsubr
          284 134 callgsubr
          427 343 rmoveto
          -1139 -16 callgsubr
          95 63 216 callsubr
          -4 17 -8 15 vhcurveto
          68 -12 hlineto
          -37 callgsubr
        </CharString>
        <CharString name="dvJH_NA">
          628 872 226 callsubr
          -257 114 callsubr
          484 hlineto
          -191 -338 -102 callsubr
          413 370 rmoveto
          -1134 -16 callgsubr
          95 63 216 callsubr
          -4 17 -8 15 vhcurveto
          84 -5 hlineto
          19 callsubr
        </CharString>
        <CharString name="dvJH_R">
          99 221 328 rmoveto
          304 callgsubr
          259 170 92 117 -612 -117 380 -50 -119 193 callgsubr
          -10 vlineto
          -107 67 -34 91 vhcurveto
          2 hlineto
          30 6 -18 -19 hvcurveto
          -19 182 callgsubr
          25 vlineto
          199 callsubr
          223 vlineto
          endchar
        </CharString>
        <CharString name="dvJH_RA">
          313 480 384 rmoveto
          170 78 -226 -337 vlineto
          304 callgsubr
          167 -215 rmoveto
          199 callsubr
          2 hlineto
          -8 -56 1 -37 -17 vvcurveto
          -5 126 564 83 117 -820 -117 380 -50 -119 174 callgsubr
          -10 vlineto
          -107 67 -34 91 vhcurveto
          2 hlineto
          30 6 -18 -19 hvcurveto
          -16 182 callgsubr
          endchar
        </CharString>
        <CharString name="dvJH_YA">
          524 768 -104 callsubr
          -202 -95 rmoveto
          80 callsubr
          -68 -234 114 callsubr
          171 hlineto
          145 callgsubr
          -1030 -16 callgsubr
          95 63 216 callsubr
          -4 17 -8 15 vhcurveto
          67 hlineto
          -86 23 85 -48 118 -38 callgsubr
        </CharString>
        <CharString name="dvJ_BA">
          439 558 15 callsubr
          215 291 rmoveto
          -945 -117 730 215 callgsubr
          -41 -35 -4 -11 -27 hvcurveto
          -419 -129 99 hlineto
          0 11 -13 -101 callgsubr
          96 hlineto
          -1 -10 -1 -11 -12 vvcurveto
          -117 96 callgsubr
        </CharString>
        <CharString name="dvJ_DA">
          394 773 368 111 callgsubr
          -900 -117 673 -59 -32 vlineto
          -6 0 -505 165 callsubr
          -92 -99 callsubr
          106 -13 callsubr
          91 hlineto
          -1 -12 -1 -13 -14 vvcurveto
          -119 vlineto
          -103 48 -53 113 27 22 3 3 12 vhcurveto
          53 callsubr
        </CharString>
        <CharString name="dvJ_DDA">
          368 741 246 callgsubr
          -872 -117 641 -50 -34 vlineto
          -36 -31 -4 -9 -25 hvcurveto
          -385 -129 99 hlineto
          0 11 -13 -101 callgsubr
          67 -9 hlineto
          -36 callsubr
        </CharString>
        <CharString name="dvJ_JA">
          505 971 14 callgsubr
          -1011 -117 789 -63 -659 -129 99 hlineto
          0 11 -13 -101 callgsubr
          195 hlineto
          0 11 -22 -101 callgsubr
          81 -371 -25 callsubr
        </CharString>
        <CharString name="dvJ_JHA">
          586 830 328 rmoveto
          -257 hlineto
          225 callgsubr
          179 170 78 hlineto
          221 117 rmoveto
          -1091 -117 652 -50 -39 hlineto
          -36 -31 -4 -9 -25 hvcurveto
          -391 -129 99 hlineto
          0 11 -13 -101 callgsubr
          73 -9 hlineto
          -10 317 callgsubr
          11 hlineto
          69 callgsubr
          -5 20 -8 12 vhcurveto
          78 -220 169 callsubr
        </CharString>
        <CharString name="dvJ_J_NYA">
          597 90 362 rmoveto
          99 hlineto
          0 11 -13 -101 callgsubr
          84 120 -325 hlineto
          973 180 rmoveto
          -1103 -117 881 -63 -330 -120 112 hlineto
          42 callsubr
          79 -371 -25 callsubr
        </CharString>
        <CharString name="dvJ_J_VA">
          745 996 -95 callgsubr
          215 288 rmoveto
          -1251 -117 1029 70 callsubr
          -36 -29 -5 -10 -23 hvcurveto
          -745 -129 99 hlineto
          0 11 -13 -101 callgsubr
          195 hlineto
          0 11 -22 -101 callgsubr
          92 hlineto
          -1 -8 0 -8 -9 vvcurveto
          -135 vlineto
          -59 callsubr
        </CharString>
        <CharString name="dvJ_J_YA">
          830 1074 -104 callsubr
          87 callsubr
          -1336 -117 905 70 callgsubr
          -21 -4 -14 -9 -10 vhcurveto
          44 -16 -55 33 -98 hhcurveto
          -600 -129 99 hlineto
          0 11 -13 -101 callgsubr
          195 hlineto
          0 11 -22 -101 callgsubr
          8 hlineto
          62 21 -10 -33 hvcurveto
          -58 vlineto
          -89 callsubr
          vlineto
          endchar
        </CharString>
        <CharString name="dvJ_KA">
          596 1063 273 callgsubr
          -1103 -117 679 -380 vlineto
          162 callsubr
          -407 -129 99 hlineto
          0 11 -13 -101 callgsubr
          92 hlineto
          -1 -7 0 -8 -8 vvcurveto
          -146 -75 callsubr
        </CharString>
        <CharString name="dvJ_MA">
          583 830 121 callsubr
          -341 rmoveto
          -94 callgsubr
          427 343 rmoveto
          -1089 -117 662 322 callgsubr
          -22 -19 -2 -3 -17 hvcurveto
          31 -24 -48 19 -79 hhcurveto
          -284 -129 99 hlineto
          0 11 -13 -101 callgsubr
          15 hlineto
          39 23 -3 -11 12 hvcurveto
          -7 -19 -3 -21 -23 vvcurveto
          -86 vlineto
          -37 callgsubr
        </CharString>
        <CharString name="dvJ_NA">
          564 617 216 -102 callsubr
          413 370 rmoveto
          -1070 -117 848 -63 -227 hlineto
          -49 -37 -10 -18 -26 hvcurveto
          21 -31 -45 7 -45 hhcurveto
          -258 -129 99 hlineto
          0 11 -13 -101 callgsubr
          50 hlineto
          13 11 -2 -3 9 hvcurveto
          -1 -12 -1 -13 -13 vvcurveto
          -113 vlineto
          19 callsubr
        </CharString>
        <CharString name="dvJ_NY">
          12 130 371 rmoveto
          112 hlineto
          42 callsubr
          183 120 -434 hlineto
          -170 180 rmoveto
          -117 604 296 callsubr
        </CharString>
        <CharString name="dvJ_NYA">
          216 -40 14 callgsubr
          -117 500 -63 -330 -120 112 vlineto
          42 callsubr
          79 -371 222 callsubr
        </CharString>
        <CharString name="dvJ_NY_YA">
          531 775 -104 callsubr
          87 callsubr
          -1037 -117 606 70 callgsubr
          -19 -3 -13 -7 -10 vhcurveto
          46 -15 -53 28 -93 hhcurveto
          -272 -120 112 hlineto
          42 callsubr
          11 hlineto
          58 9 -14 -31 1 hvcurveto
          -56 vlineto
          -89 callsubr
          vlineto
          endchar
        </CharString>
        <CharString name="dvJ_R">
          -10 188 -56 56 callgsubr
        </CharString>
        <CharString name="dvJ_RA">
          31 callgsubr
          endchar
        </CharString>
        <CharString name="dvJ_TA">
          426 892 14 callgsubr
          -932 -117 710 -64 hlineto
          263 callsubr
          -19 -18 -2 -3 -16 vhcurveto
          -456 -129 99 hlineto
          0 11 -13 -101 callgsubr
          97 hlineto
          -3 -15 -1 -16 -17 vvcurveto
          147 callsubr
          vlineto
          endchar
        </CharString>
        <CharString name="dvJ_TTA">
          390 756 364 167 callgsubr
          -886 -117 656 -63 -6 vlineto
          -15 0 -505 -129 99 hlineto
          0 11 -13 -101 callgsubr
          99 hlineto
          -4 -17 -2 -19 -20 vvcurveto
          -12 callsubr
        </CharString>
        <CharString name="dvJ_VA">
          410 661 -95 callgsubr
          215 288 rmoveto
          -916 -117 694 70 callsubr
          -36 -29 -5 -10 -23 hvcurveto
          -410 -129 99 hlineto
          0 11 -13 -101 callgsubr
          94 hlineto
          -1 -8 0 -8 -9 vvcurveto
          -135 vlineto
          -59 callsubr
        </CharString>
        <CharString name="dvJ_YA">
          491 735 -104 callsubr
          87 callsubr
          -997 -117 566 150 callgsubr
          -274 -129 99 hlineto
          0 11 -13 -101 callgsubr
          5 hlineto
          62 22 -9 -34 hvcurveto
          -58 vlineto
          -89 callsubr
          vlineto
          endchar
        </CharString>
        <CharString name="dvJx">
          -61 40 -75 164 callgsubr
          375 746 rmoveto
          -455 -117 455 hlineto
          -63 vmoveto
          -325 -129 99 hlineto
          0 11 -13 -101 callgsubr
          84 hlineto
          endchar
        </CharString>
        <CharString name="dvJxA">
          168 -11 -64 164 callgsubr
          351 388 82 callsubr
        </CharString>
        <CharString name="dvJx_JxA">
          505 45 18 rmoveto
          -24 callsubr
          349 hmoveto
          -24 callsubr
          577 653 rmoveto
          -1011 -117 789 -63 -659 -129 99 hlineto
          0 11 -13 -101 callgsubr
          195 hlineto
          0 11 -22 -101 callgsubr
          81 -371 -25 callsubr
        </CharString>
        <CharString name="dvJx_R">
          -10 10 -15 rmoveto
          -42 16 -33 59 58 17 314 callsubr
          178 -41 56 callgsubr
        </CharString>
        <CharString name="dvJx_RA">
          31 callgsubr
          -344 -377 rmoveto
          239 callsubr
        </CharString>
        <CharString name="dvJx_YA">
          491 45 21 rmoveto
          -24 callsubr
          690 203 -107 callsubr
          87 callsubr
          -997 -117 566 150 callgsubr
          -274 165 callsubr
          -78 -99 callsubr
          92 -13 callsubr
          5 hlineto
          62 22 -9 -34 hvcurveto
          -58 vlineto
          -89 callsubr
          vlineto
          endchar
        </CharString>
        <CharString name="dvK">
          -3 467 339 rmoveto
          123 9 hlineto
          98 -37 59 -121 -14 -22 -1 -4 -13 vhcurveto
          54 309 callgsubr
          -711 -117 287 -380 vlineto
          -103 callgsubr
          endchar
        </CharString>
        <CharString name="dvKA">
          206 247 174 -69 callgsubr
          -711 147 callgsubr
          vlineto
          endchar
        </CharString>
        <CharString name="dvKH">
          153 615 256 50 callsubr
          -111 60 -87 156 40 55 6 13 37 vhcurveto
          125 callgsubr
        </CharString>
        <CharString name="dvKHA">
          367 613 59 callgsubr
          -872 -117 270 hlineto
          0 10 -13 -34 vvcurveto
          -119 vlineto
          -23 -7 -16 -33 -13 -9 1 1 -12 vhcurveto
          100 -133 -258 -23 callsubr
        </CharString>
        <CharString name="dvKH_KHA">
          947 1195 4 callsubr
          -666 -35 -16 callsubr
          884 415 rmoveto
          -1453 -98 callgsubr
          449 hlineto
          -53 callsubr
          -10 1 1 -11 vhcurveto
          93 -5 -45 48 -126 10 callsubr
          22 20 2 2 17 vhcurveto
          -64 27 63 -44 110 hhcurveto
          40 55 6 13 37 hvcurveto
          73 callgsubr
        </CharString>
        <CharString name="dvKH_MA">
          779 1026 121 callsubr
          -341 rmoveto
          -94 callgsubr
          -289 7 -16 callsubr
          716 415 rmoveto
          -1285 -98 callgsubr
          455 322 callgsubr
          -24 -21 -2 -5 -18 hvcurveto
          35 -24 -44 18 -76 10 callsubr
          28 23 2 5 20 vhcurveto
          -32 25 43 -19 68 48 callgsubr
        </CharString>
        <CharString name="dvKH_NA">
          767 820 216 -102 callsubr
          -291 34 -16 callsubr
          704 415 rmoveto
          -1273 -98 callgsubr
          648 -63 -227 hlineto
          -45 -34 -8 -15 -26 hvcurveto
          16 -22 -34 8 -51 10 callsubr
          28 23 3 7 19 vhcurveto
          -37 25 46 -20 71 hhcurveto
          257 callgsubr
          hvcurveto
          -33 callsubr
        </CharString>
        <CharString name="dvKH_R">
          153 615 256 -11 callgsubr
        </CharString>
        <CharString name="dvKH_RA">
          365 613 59 callgsubr
          -872 181 callsubr
          -102 51 -65 129 -10 vhcurveto
          -119 -97 rlineto
          -4 vlineto
          181 -14 106 113 rlineto
          -82 callsubr
        </CharString>
        <CharString name="dvKH_SHA">
          781 166 230 0 callgsubr
          vhcurveto
          -48 hlineto
          71 -12 -43 37 -110 33 callgsubr
        </CharString>
        <CharString name="dvKH_TA">
          607 529 335 -33 callgsubr
        </CharString>
        <CharString name="dvKH_VA">
          601 852 -95 callgsubr
          -323 -48 -16 callsubr
          538 415 rmoveto
          -1107 -98 callgsubr
          482 70 callsubr
          -53 -38 -11 -21 -26 hvcurveto
          11 -21 -29 7 -40 10 callsubr
          27 21 4 6 18 vhcurveto
          -37 24 44 -20 73 83 callgsubr
        </CharString>
        <CharString name="dvKH_YA">
          686 930 224 -39 callgsubr
        </CharString>
        <CharString name="dvKHx">
          153 48 4 rmoveto
          -24 callsubr
          567 252 50 callsubr
          -111 60 -87 156 40 55 6 13 37 vhcurveto
          125 callgsubr
        </CharString>
        <CharString name="dvKHxA">
          370 50 29 callgsubr
          568 217 -28 callgsubr
          218 301 rmoveto
          -876 185 callgsubr
          -97 callsubr
          250 -63 hlineto
          0 -26 5 -33 -123 -29 -59 -103 vhcurveto
          -78 vlineto
          -103 36 -54 123 34 18 6 0 vhcurveto
          -105 136 554 82 vlineto
          endchar
        </CharString>
        <CharString name="dvKHx_MA">
          788 51 29 callgsubr
          984 442 37 callgsubr
          -341 rmoveto
          -94 callgsubr
          -298 7 -16 callsubr
          725 415 rmoveto
          -1294 -98 callgsubr
          464 322 callgsubr
          -27 -23 -3 -5 -21 hvcurveto
          36 -23 -44 18 -78 10 callsubr
          29 25 3 5 20 vhcurveto
          -33 27 46 -19 69 48 callgsubr
        </CharString>
        <CharString name="dvKHx_R">
          153 562 43 rmoveto
          -59 -16 40 callsubr
          -17 33 -58 hvcurveto
          53 213 -11 callgsubr
        </CharString>
        <CharString name="dvKHx_RA">
          371 505 -4 rmoveto
          -59 -16 40 callsubr
          -17 33 -58 hvcurveto
          108 225 -28 callgsubr
          219 301 rmoveto
          -872 181 callsubr
          -102 51 -65 129 -10 vhcurveto
          -119 -97 rlineto
          -4 vlineto
          181 -14 106 113 rlineto
          -82 callsubr
        </CharString>
        <CharString name="dvKHx_SA">
          780 50 29 callgsubr
          974 377 rmoveto
          -78 1 hlineto
          125 -66 callgsubr
          84 hlineto
          -495 -219 -16 callsubr
          717 415 rmoveto
          -1286 -98 callgsubr
          436 hlineto
          0 10 -3 callsubr
          -123 vlineto
          80 callgsubr
          94 -3 -38 49 -127 10 callsubr
          20 18 1 3 15 vhcurveto
          -65 21 56 -43 107 hhcurveto
          12 callsubr
          hvcurveto
          -74 callsubr
        </CharString>
        <CharString name="dvKHx_SHA">
          781 51 29 callgsubr
          115 226 0 callgsubr
          -16 -16 0 1 -17 vhcurveto
          70 -12 -43 37 -109 33 callgsubr
        </CharString>
        <CharString name="dvKHx_TA">
          607 47 29 callgsubr
          482 331 -33 callgsubr
        </CharString>
        <CharString name="dvKHx_VA">
          601 51 29 callgsubr
          801 173 -96 callgsubr
          -323 -48 -16 callsubr
          538 415 rmoveto
          -1107 -98 callgsubr
          482 70 callsubr
          -53 -38 -11 -21 -26 hvcurveto
          11 -21 -29 7 -40 10 callsubr
          27 21 4 6 18 vhcurveto
          -37 24 44 -20 73 83 callgsubr
        </CharString>
        <CharString name="dvKHx_YA">
          686 51 29 callgsubr
          879 220 -39 callgsubr
        </CharString>
        <CharString name="dvK_CA">
          494 738 183 rmoveto
          126 callgsubr
          29 vlineto
          246 callsubr
          -125 hlineto
          49 -19 -43 27 -83 166 callsubr
          355 vlineto
          221 117 rmoveto
          -999 -117 287 -380 hlineto
          -103 callgsubr
          -40 37 vlineto
          0 -6 -19 -30 vvcurveto
          -35 222 callgsubr
        </CharString>
        <CharString name="dvK_DA">
          441 383 554 rmoveto
          297 -59 -32 hlineto
          -44 -36 -5 -12 -28 hvcurveto
          18 -24 -35 9 -49 74 callgsubr
          437 -132 111 callgsubr
          -947 -117 287 -380 vlineto
          -103 callgsubr
          -4 vlineto
          0 vlineto
          -3 vlineto
          -119 vlineto
          -103 48 -53 113 27 22 3 3 12 vhcurveto
          53 callsubr
        </CharString>
        <CharString name="dvK_JA">
          724 1189 14 callgsubr
          -1229 -117 287 -380 hlineto
          -103 callgsubr
          -81 141 86 vlineto
          98 -55 59 -121 -14 -22 -1 -4 -13 vhcurveto
          54 585 -63 -285 -129 62 -14 callsubr
        </CharString>
        <CharString name="dvK_KA">
          642 684 174 -41 callsubr
        </CharString>
        <CharString name="dvK_KHA">
          799 1047 4 callsubr
          -373 18 rmoveto
          -23 -7 -16 -33 -13 -10 1 1 -11 vhcurveto
          96 -1 -47 58 -120 166 callsubr
          281 vlineto
          0 10 -3 callsubr
          592 164 rmoveto
          -1306 -117 287 -380 hlineto
          -103 callgsubr
          -150 -23 callsubr
        </CharString>
        <CharString name="dvK_LA">
          659 903 13 callgsubr
          -38 -32 -7 -13 -26 hvcurveto
          20 -25 -36 11 -52 166 callsubr
          520 272 callsubr
          -1165 -117 287 -380 hlineto
          -103 callgsubr
          -4 vlineto
          0 vlineto
          -8 vlineto
          3 callsubr
        </CharString>
        <CharString name="dvK_MA">
          640 887 109 callgsubr
          -23 -20 -2 -4 -18 hvcurveto
          42 -24 -47 23 -76 166 callsubr
          296 220 callgsubr
          427 343 rmoveto
          -1146 -117 287 -380 hlineto
          -103 callgsubr
          -135 vlineto
          -37 callgsubr
        </CharString>
        <CharString name="dvK_NA">
          619 863 178 callsubr
          -40 -32 -6 -12 -24 hvcurveto
          20 -27 -39 11 -52 hhcurveto
          -11 -21 -2 -2 -8 hvcurveto
          54 481 vlineto
          -191 -338 -102 callsubr
          413 370 rmoveto
          -1125 -117 286 -67 callgsubr
          382 vlineto
          1 6 13 1 8 174 callsubr
          vlineto
          0 vlineto
          -10 vlineto
          -113 vlineto
          19 callsubr
        </CharString>
        <CharString name="dvK_NNA">
          687 713 267 -10 callsubr
          -330 hmoveto
          114 -84 282 callsubr
          770 203 rmoveto
          -1193 -117 287 -380 hlineto
          7 callsubr
          -47 118 callsubr
        </CharString>
        <CharString name="dvK_PA">
          479 723 245 rmoveto
          13 callsubr
          276 86 vlineto
          -340 hmoveto
          114 -84 282 callsubr
          562 203 rmoveto
          -985 -117 287 -380 hlineto
          7 callsubr
          -41 vlineto
          48 callsubr
        </CharString>
        <CharString name="dvK_PHA">
          677 715 228 -78 callsubr
        </CharString>
        <CharString name="dvK_P_RA">
          479 383 554 rmoveto
          114 -69 282 callsubr
          254 71 rmoveto
          86 -253 hlineto
          13 callsubr
          308 337 rmoveto
          -985 -59 callgsubr
          365 vlineto
          3 10 33 2 13 174 callsubr
          vlineto
          0 vlineto
          3 -65 22 -44 51 -21 -108 -194 rcurveline
          34 callgsubr
        </CharString>
        <CharString name="dvK_R">
          34 633 554 21 callsubr
        </CharString>
        <CharString name="dvK_RA">
          216 682 273 callgsubr
          -722 -117 299 -344 vlineto
          0 -17 -8 -25 -35 -7 17 25 vhcurveto
          99 85 callsubr
          -110 vlineto
          217 callgsubr
          -142 rlineto
          -53 callgsubr
        </CharString>
        <CharString name="dvK_SA">
          647 891 381 rmoveto
          -78 1 hlineto
          125 vlineto
          31 -6 16 0 vhcurveto
          84 hlineto
          -215 -170 -30 callsubr
          437 164 rmoveto
          -1153 -117 287 -380 hlineto
          -103 callgsubr
          -169 -50 callgsubr
        </CharString>
        <CharString name="dvK_SHA">
          642 608 497 123 callsubr
          -461 -24 callgsubr
          41 callgsubr
        </CharString>
        <CharString name="dvK_SS">
          6 555 435 rmoveto
          -165 hlineto
          230 callsubr
          30 vlineto
          -65 callgsubr
          332 hlineto
          -291 149 16 callgsubr
          endchar
        </CharString>
        <CharString name="dvK_SSA">
          227 396 517 rmoveto
          -65 callgsubr
          248 -320 -92 callsubr
          -222 -236 -81 hlineto
          230 callsubr
          -132 -18 16 callgsubr
          endchar
        </CharString>
        <CharString name="dvK_SS_MA">
          632 879 121 callsubr
          -341 rmoveto
          -94 callgsubr
          -407 141 16 callgsubr
          200 155 rmoveto
          -117 207 -108 -39 vlineto
          -31 -27 -4 -7 -22 hvcurveto
          -162 hlineto
          230 callsubr
          30 vlineto
          -65 callgsubr
          237 hlineto
          -1 -8 0 -9 -9 vvcurveto
          -86 vlineto
          99 callgsubr
          296 callsubr
        </CharString>
        <CharString name="dvK_SS_M_YA">
          946 1190 -104 callsubr
          -392 -108 rmoveto
          108 183 vlineto
          -54 callsubr
          -25 -5 -16 -14 -10 vhcurveto
          25 -22 -37 13 -59 hhcurveto
          -187 -233 rmoveto
          -94 callgsubr
          -400 141 16 callgsubr
          1148 155 rmoveto
          -962 -117 214 322 callgsubr
          -31 -27 -4 -7 -22 hvcurveto
          -155 hlineto
          230 callsubr
          30 vlineto
          -65 callgsubr
          230 hlineto
          -1 -8 0 -9 -9 vvcurveto
          -51 callsubr
          38 vlineto
          30 9 -4 -21 hvcurveto
          -33 vlineto
          -89 callsubr
          vlineto
          endchar
        </CharString>
        <CharString name="dvK_SS_VA">
          456 707 -95 callgsubr
          -443 86 16 callgsubr
          201 155 rmoveto
          -117 235 247 callgsubr
          -78 -47 -25 -46 -22 hvcurveto
          -97 hlineto
          230 callsubr
          30 vlineto
          -65 callgsubr
          247 -109 hlineto
          96 callsubr
        </CharString>
        <CharString name="dvK_SS_YA">
          535 779 312 callsubr
          27 47 hvcurveto
          57 vlineto
          77 4 35 41 77 vvcurveto
          38 214 callgsubr
          -515 -85 16 callgsubr
          200 155 rmoveto
          -117 106 vlineto
          0 7 -3 callsubr
          -9 vlineto
          78 callgsubr
          -98 hlineto
          230 callsubr
          30 vlineto
          -65 callgsubr
          241 -50 224 callgsubr
          vlineto
          endchar
        </CharString>
        <CharString name="dvK_S_DDA">
          859 813 381 rmoveto
          34 callsubr
          285 -50 -34 hlineto
          -106 -56 -34 -89 -6 hvcurveto
          -214 3 -30 callsubr
          556 -123 194 callsubr
          -1363 -117 287 -380 vlineto
          -103 callgsubr
          -169 -38 callsubr
          129 hlineto
          -47 24 53 -19 76 hhcurveto
          -20 callsubr
          endchar
        </CharString>
        <CharString name="dvK_S_P_LA">
          1340 1584 13 callgsubr
          -113 -61 -60 -103 hvcurveto
          -90 vlineto
          -2 -13 -15 -1 -12 188 callsubr
          528 vlineto
          -668 hmoveto
          -173 -103 34 callsubr
          -131 -170 -30 callsubr
          1130 164 rmoveto
          -1846 -117 287 -380 hlineto
          -103 callgsubr
          -169 -38 callsubr
          140 hlineto
          -96 3 45 -51 122 hhcurveto
          23 25 2 3 21 hvcurveto
          -80 19 61 -39 116 hhcurveto
          -2 callsubr
          hvcurveto
          -88 callgsubr
        </CharString>
        <CharString name="dvK_S_P_RA">
          884 902 554 rmoveto
          -173 -89 34 callsubr
          -131 -170 -30 callsubr
          366 47 rmoveto
          86 -253 hlineto
          13 callsubr
          308 337 rmoveto
          -1390 -117 287 -380 hlineto
          -103 callgsubr
          -169 -38 callsubr
          138 hlineto
          11 -31 21 -23 32 -13 -108 -194 rcurveline
          34 callgsubr
        </CharString>
        <CharString name="dvK_S_TA">
          894 1138 281 callsubr
          -86 1 hlineto
          125 -66 callgsubr
          331 hlineto
          -462 -170 -30 callsubr
          684 164 rmoveto
          -1400 -117 287 -380 hlineto
          -103 callgsubr
          -169 -38 callsubr
          116 -107 hlineto
          -48 callsubr
        </CharString>
        <CharString name="dvK_S_TTA">
          848 813 381 rmoveto
          34 callsubr
          277 -63 -6 hlineto
          -98 -59 -39 -71 -20 hvcurveto
          -225 3 -30 callsubr
          548 -143 167 callgsubr
          -1354 -117 287 -380 vlineto
          -103 callgsubr
          -169 -38 callsubr
          116 -83 hlineto
          27 callgsubr
        </CharString>
        <CharString name="dvK_TA">
          258 432 368 rmoveto
          -98 callsubr
          66 292 117 -764 -117 336 -68 vlineto
          0 -29 5 -34 vhcurveto
          -213 -118 62 hlineto
          -5 -14 -2 -14 -16 vvcurveto
          -126 vlineto
          -103 39 -58 113 8 6 0 2 11 vhcurveto
          2 callsubr
          -35 -9 6 32 hvcurveto
          117 vlineto
          25 9 17 35 18 26 -4 0 vhcurveto
          -367 136 vlineto
          endchar
        </CharString>
        <CharString name="dvK_THA">
          604 848 671 -37 callsubr
          -54 hlineto
          21 -24 -37 11 -53 74 callgsubr
          105 62 117 -485 -24 callgsubr
          329 116 callgsubr
          -4 vlineto
          0 vlineto
          -136 2 103 -78 159 hhcurveto
          48 32 3 8 37 hvcurveto
          -85 -61 callgsubr
        </CharString>
        <CharString name="dvK_TTA">
          424 383 554 rmoveto
          276 -63 -6 hlineto
          -42 -34 -7 -14 -28 hvcurveto
          23 -25 -37 12 -55 74 callgsubr
          416 -136 167 callgsubr
          -929 -117 287 -380 vlineto
          -103 callgsubr
          -4 1 vlineto
          -1 -8 0 -8 -8 vvcurveto
          -12 callsubr
        </CharString>
        <CharString name="dvK_T_RA">
          506 750 486 rmoveto
          0 -34 10 -56 -48 -37 -8 -15 -29 vhcurveto
          21 313 callgsubr
          54 367 272 callsubr
          -1012 -117 287 -380 hlineto
          -103 callgsubr
          -24 vlineto
          0 vlineto
          -4 vlineto
          102 callgsubr
          -282 -309 45 callgsubr
          554 82 vlineto
          endchar
        </CharString>
        <CharString name="dvK_T_VA">
          688 939 -95 callgsubr
          -556 171 rmoveto
          549 70 callsubr
          -39 -31 -6 -12 -24 hvcurveto
          2 -28 -33 6 -53 hhcurveto
          -47 -37 -8 -14 -28 hvcurveto
          20 313 callgsubr
          771 171 rmoveto
          -1194 -117 287 -380 hlineto
          -103 callgsubr
          -189 vlineto
          221 callsubr
          11 13 0 -1 13 vhcurveto
          -1 -7 0 -6 -7 vvcurveto
          -135 vlineto
          -59 callsubr
        </CharString>
        <CharString name="dvK_T_YA">
          772 1017 -104 callsubr
          -357 -92 rmoveto
          -37 -31 -4 -8 -25 hvcurveto
          35 -23 -42 20 -70 166 callsubr
          424 vlineto
          -54 callsubr
          -14 -2 -12 -4 -8 vhcurveto
          24 -28 -45 13 -62 hhcurveto
          565 209 rmoveto
          -1278 -117 287 -380 hlineto
          -103 callgsubr
          -189 234 callgsubr
          116 231 callgsubr
          11 hlineto
          14 9 -4 -5 7 hvcurveto
          -54 vlineto
          -89 callsubr
          vlineto
          endchar
        </CharString>
        <CharString name="dvK_VA">
          461 712 -95 callgsubr
          -329 171 rmoveto
          322 70 callsubr
          -45 -34 -8 -16 -26 hvcurveto
          15 -25 -35 8 -44 hhcurveto
          -17 -22 -3 -2 -8 hvcurveto
          544 171 rmoveto
          -967 -59 callgsubr
          382 vlineto
          1 8 11 2 15 179 callsubr
          -132 vlineto
          -59 callsubr
        </CharString>
        <CharString name="dvK_V_YA">
          805 1049 -104 callsubr
          -202 -95 rmoveto
          80 callsubr
          -172 hlineto
          -35 -10 -19 -55 -55 -11 133 callgsubr
          -50 -37 -8 -15 -28 vhcurveto
          14 -24 -33 8 -43 166 callsubr
          457 vlineto
          145 callgsubr
          -1311 -117 287 -380 hlineto
          -103 callgsubr
          -122 vlineto
          -108 45 -62 153 83 47 28 41 25 vhcurveto
          -22 38 50 -12 58 -38 callgsubr
        </CharString>
</ttFont>
